<svg width="96.662109" height="25.029541" viewBox="0 0 96.6621 25.0295" fill="none" xmlns="http://www.w3.org/2000/svg" xmlns:xlink="http://www.w3.org/1999/xlink">
	<desc>
			Created with Pixso.
	</desc>
	<defs/>
	<path id="Vector" d="M17.05 13.24C17.06 12.27 17.32 11.33 17.79 10.49C18.27 9.65 18.95 8.94 19.77 8.44C19.25 7.69 18.56 7.08 17.76 6.65C16.96 6.21 16.07 5.97 15.16 5.94C13.23 5.74 11.35 7.11 10.37 7.11C9.36 7.11 7.84 5.96 6.21 6C5.15 6.03 4.12 6.34 3.22 6.89C2.31 7.45 1.57 8.22 1.05 9.15C-1.18 13.02 0.49 18.71 2.62 21.84C3.69 23.37 4.94 25.08 6.57 25.02C8.17 24.96 8.77 24 10.7 24C12.61 24 13.17 25.02 14.84 24.98C16.55 24.96 17.63 23.45 18.66 21.9C19.43 20.81 20.02 19.6 20.41 18.32C19.42 17.9 18.57 17.19 17.97 16.29C17.37 15.38 17.05 14.32 17.05 13.24Z" fill="#FFFFFF" fill-opacity="1.000000" fill-rule="nonzero"/>
	<path id="Vector" d="M14.44 3.66C15.42 2.64 15.9 1.32 15.79 0C14.29 0.13 12.91 0.75 11.92 1.74C11.44 2.22 11.07 2.78 10.83 3.38C10.59 3.99 10.5 4.63 10.54 5.26C11.29 5.27 12.03 5.13 12.71 4.85C13.38 4.57 13.98 4.17 14.44 3.66Z" fill="#FFFFFF" fill-opacity="1.000000" fill-rule="nonzero"/>
	<path id="Vector" d="M40.97 15.46L37.04 15.46L36.1 18.19L34.44 18.19L38.16 8.07L39.88 8.07L43.6 18.19L41.91 18.19L40.97 15.46ZM37.45 14.19L40.56 14.19L39.03 9.75L38.98 9.75L37.45 14.19Z" fill="#FFFFFF" fill-opacity="1.000000" fill-rule="nonzero"/>
	<path id="Vector" d="M51.62 14.5C51.62 16.8 50.38 18.27 48.49 18.27C48.01 18.3 47.54 18.19 47.12 17.96C46.71 17.73 46.36 17.39 46.13 16.98L46.09 16.98L46.09 20.64L44.55 20.64L44.55 10.81L46.05 10.81L46.05 12.04L46.07 12.04C46.32 11.63 46.66 11.29 47.09 11.06C47.51 10.83 47.98 10.72 48.46 10.73C50.37 10.73 51.62 12.22 51.62 14.5ZM50.04 14.5C50.04 13.01 49.25 12.03 48.06 12.03C46.88 12.03 46.09 13.03 46.09 14.5C46.09 15.99 46.88 16.99 48.06 16.99C49.25 16.99 50.04 16.01 50.04 14.5Z" fill="#FFFFFF" fill-opacity="1.000000" fill-rule="nonzero"/>
	<path id="Vector" d="M59.88 14.5C59.88 16.8 58.63 18.27 56.75 18.27C56.27 18.3 55.8 18.19 55.38 17.96C54.96 17.73 54.62 17.39 54.39 16.98L54.35 16.98L54.35 20.64L52.81 20.64L52.81 10.81L54.3 10.81L54.3 12.04L54.33 12.04C54.57 11.63 54.92 11.29 55.34 11.06C55.77 10.83 56.24 10.72 56.72 10.73C58.63 10.73 59.88 12.22 59.88 14.5ZM58.3 14.5C58.3 13.01 57.51 12.03 56.32 12.03C55.14 12.03 54.35 13.03 54.35 14.5C54.35 15.99 55.14 16.99 56.32 16.99C57.51 16.99 58.3 16.01 58.3 14.5Z" fill="#FFFFFF" fill-opacity="1.000000" fill-rule="nonzero"/>
	<path id="Vector" d="M65.34 15.37C65.46 16.38 66.45 17.04 67.8 17.04C69.1 17.04 70.04 16.38 70.04 15.47C70.04 14.69 69.47 14.22 68.14 13.89L66.8 13.58C64.91 13.13 64.04 12.26 64.04 10.85C64.04 9.1 65.58 7.9 67.78 7.9C69.96 7.9 71.45 9.1 71.5 10.85L69.94 10.85C69.85 9.84 69 9.23 67.76 9.23C66.52 9.23 65.67 9.84 65.67 10.74C65.67 11.46 66.21 11.88 67.54 12.2L68.67 12.48C70.79 12.97 71.66 13.8 71.66 15.28C71.66 17.18 70.13 18.36 67.69 18.36C65.41 18.36 63.87 17.2 63.77 15.37L65.34 15.37Z" fill="#FFFFFF" fill-opacity="1.000000" fill-rule="nonzero"/>
	<path id="Vector" d="M74.99 9.06L74.99 10.81L76.41 10.81L76.41 12.01L74.99 12.01L74.99 16.08C74.99 16.71 75.27 17.01 75.9 17.01C76.07 17.01 76.24 16.99 76.41 16.97L76.41 18.17C76.12 18.22 75.84 18.24 75.55 18.24C74.03 18.24 73.44 17.67 73.44 16.24L73.44 12.01L72.35 12.01L72.35 10.81L73.44 10.81L73.44 9.06L74.99 9.06Z" fill="#FFFFFF" fill-opacity="1.000000" fill-rule="nonzero"/>
	<path id="Vector" d="M77.24 14.5C77.24 12.18 78.63 10.72 80.8 10.72C82.98 10.72 84.36 12.18 84.36 14.5C84.36 16.83 82.98 18.29 80.8 18.29C78.62 18.29 77.24 16.83 77.24 14.5ZM82.79 14.5C82.79 12.91 82.05 11.97 80.8 11.97C79.55 11.97 78.81 12.92 78.81 14.5C78.81 16.1 79.55 17.04 80.8 17.04C82.05 17.04 82.79 16.1 82.79 14.5Z" fill="#FFFFFF" fill-opacity="1.000000" fill-rule="nonzero"/>
	<path id="Vector" d="M85.63 10.81L87.1 10.81L87.1 12.07L87.13 12.07C87.23 11.68 87.47 11.33 87.8 11.09C88.12 10.84 88.53 10.72 88.94 10.73C89.12 10.73 89.29 10.75 89.47 10.79L89.47 12.21C89.24 12.14 89.01 12.11 88.77 12.12C88.55 12.11 88.33 12.15 88.12 12.23C87.91 12.31 87.73 12.44 87.57 12.6C87.42 12.76 87.31 12.96 87.24 13.16C87.17 13.37 87.14 13.6 87.17 13.82L87.17 18.19L85.63 18.19L85.63 10.81Z" fill="#FFFFFF" fill-opacity="1.000000" fill-rule="nonzero"/>
	<path id="Vector" d="M96.57 16.03C96.36 17.37 95.04 18.29 93.34 18.29C91.16 18.29 89.8 16.85 89.8 14.54C89.8 12.22 91.16 10.72 93.27 10.72C95.35 10.72 96.66 12.12 96.66 14.36L96.66 14.88L91.36 14.88L91.36 14.97C91.33 15.24 91.37 15.52 91.46 15.78C91.55 16.03 91.69 16.27 91.88 16.47C92.08 16.66 92.31 16.82 92.56 16.92C92.82 17.03 93.1 17.07 93.37 17.06C93.74 17.1 94.1 17.02 94.42 16.83C94.73 16.64 94.97 16.36 95.11 16.03L96.57 16.03ZM91.36 13.82L95.12 13.82C95.13 13.58 95.09 13.33 95 13.1C94.92 12.87 94.78 12.67 94.61 12.49C94.44 12.31 94.23 12.17 94 12.08C93.77 11.99 93.52 11.94 93.27 11.95C93.02 11.95 92.77 11.99 92.54 12.09C92.31 12.18 92.1 12.32 91.92 12.49C91.74 12.67 91.6 12.87 91.51 13.1C91.41 13.33 91.36 13.58 91.36 13.82Z" fill="#FFFFFF" fill-opacity="1.000000" fill-rule="nonzero"/>
</svg>
