<svg width="21.000000" height="24.000000" viewBox="0 0 21 24" fill="none" xmlns="http://www.w3.org/2000/svg" xmlns:xlink="http://www.w3.org/1999/xlink">
	<defs/>
	<path id="Vector" d="M3.75 0C2.75 0 1.8 0.39 1.09 1.09C0.39 1.8 0 2.75 0 3.75L0 17.25C0 18.24 0.39 19.19 1.09 19.9C1.8 20.6 2.75 21 3.75 21L14.25 21C15.24 21 16.19 20.6 16.9 19.9C17.6 19.19 18 18.24 18 17.25L18 3.75C18 2.75 17.6 1.8 16.9 1.09C16.19 0.39 15.24 0 14.25 0L3.75 0ZM3 4.5C3 4.1 3.15 3.72 3.43 3.43C3.72 3.15 4.1 3 4.5 3L13.5 3C13.89 3 14.27 3.15 14.56 3.43C14.84 3.72 15 4.1 15 4.5L15 7.5C15 7.89 14.84 8.27 14.56 8.56C14.27 8.84 13.89 9 13.5 9L4.5 9C4.1 9 3.72 8.84 3.43 8.56C3.15 8.27 3 7.89 3 7.5L3 4.5ZM3 12C3 11.6 3.15 11.22 3.43 10.93C3.72 10.65 4.1 10.5 4.5 10.5C4.89 10.5 5.27 10.65 5.56 10.93C5.84 11.22 6 11.6 6 12C6 12.39 5.84 12.77 5.56 13.06C5.27 13.34 4.89 13.5 4.5 13.5C4.1 13.5 3.72 13.34 3.43 13.06C3.15 12.77 3 12.39 3 12ZM9 10.5C9.39 10.5 9.77 10.65 10.06 10.93C10.34 11.22 10.5 11.6 10.5 12C10.5 12.39 10.34 12.77 10.06 13.06C9.77 13.34 9.39 13.5 9 13.5C8.6 13.5 8.22 13.34 7.93 13.06C7.65 12.77 7.5 12.39 7.5 12C7.5 11.6 7.65 11.22 7.93 10.93C8.22 10.65 8.6 10.5 9 10.5ZM9 14.62C9.39 14.62 9.77 14.78 10.06 15.06C10.34 15.34 10.5 15.72 10.5 16.12C10.5 16.52 10.34 16.9 10.06 17.18C9.77 17.46 9.39 17.62 9 17.62C8.6 17.62 8.22 17.46 7.93 17.18C7.65 16.9 7.5 16.52 7.5 16.12C7.5 15.72 7.65 15.34 7.93 15.06C8.22 14.78 8.6 14.62 9 14.62ZM12 12C12 11.6 12.15 11.22 12.43 10.93C12.72 10.65 13.1 10.5 13.5 10.5C13.89 10.5 14.27 10.65 14.56 10.93C14.84 11.22 15 11.6 15 12C15 12.39 14.84 12.77 14.56 13.06C14.27 13.34 13.89 13.5 13.5 13.5C13.1 13.5 12.72 13.34 12.43 13.06C12.15 12.77 12 12.39 12 12ZM13.5 14.62C13.89 14.62 14.27 14.78 14.56 15.06C14.84 15.34 15 15.72 15 16.12C15 16.52 14.84 16.9 14.56 17.18C14.27 17.46 13.89 17.62 13.5 17.62C13.1 17.62 12.72 17.46 12.43 17.18C12.15 16.9 12 16.52 12 16.12C12 15.72 12.15 15.34 12.43 15.06C12.72 14.78 13.1 14.62 13.5 14.62ZM4.5 14.62C4.89 14.62 5.27 14.78 5.56 15.06C5.84 15.34 6 15.72 6 16.12C6 16.52 5.84 16.9 5.56 17.18C5.27 17.46 4.89 17.62 4.5 17.62C4.1 17.62 3.72 17.46 3.43 17.18C3.15 16.9 3 16.52 3 16.12C3 15.72 3.15 15.34 3.43 15.06C3.72 14.78 4.1 14.62 4.5 14.62ZM6.75 24C6.16 24 5.59 23.86 5.07 23.6C4.55 23.34 4.09 22.96 3.75 22.5L14.25 22.5C15.64 22.5 16.97 21.94 17.96 20.96C18.94 19.97 19.5 18.64 19.5 17.25L19.5 3.75C20.41 4.43 21 5.52 21 6.75L21 17.25C21 19.04 20.28 20.75 19.02 22.02C17.75 23.28 16.04 24 14.25 24L6.75 24Z" fill="#0060AE" fill-opacity="1.000000" fill-rule="nonzero"/>
</svg>
