<svg width="40" height="27" viewBox="0 0 40 27" fill="none" xmlns="http://www.w3.org/2000/svg">
<path d="M40 20C40 23.6818 37.8919 26.6667 33.75 26.6667H6.25C2.10813 26.6667 0 23.6818 0 20V6.66667C0 2.98485 2.10813 0 6.25 0H33.75C37.8919 0 40 2.98485 40 6.66667V20Z" fill="#EC1C24"/>
<path d="M8.10929 5.79458L9.37747 8.71423L12.2204 9.18135L10.1648 11.4497L10.6492 14.6624L8.10929 13.1468L5.56877 14.6624L6.05375 11.4497L4 9.18135L6.83814 8.71423L8.10929 5.79458ZM12.5773 3.33331L12.9289 4.14321L13.7198 4.27292L13.1488 4.90404L13.2822 5.79458L12.5773 5.37384L11.8729 5.79458L12.0063 4.90404L11.436 4.27292L12.2251 4.14321L12.5773 3.33331ZM14.8605 6.24624L15.2126 7.05546L16 7.18585L15.4314 7.81831L15.5654 8.70751L14.8605 8.28744L14.1561 8.70751L14.2895 7.81831L13.7198 7.18585L14.5077 7.05546L14.8605 6.24624ZM14.8605 10.9214L15.2126 11.7327L16 11.8624L15.4314 12.4935L15.5654 13.3841L14.8605 12.9647L14.1561 13.3841L14.2895 12.4935L13.7198 11.8624L14.5077 11.7327L14.8605 10.9214ZM12.5773 14.2054L12.9289 15.0153L13.7198 15.1443L13.1488 15.7748L13.2822 16.6666L12.5773 16.2486L11.8729 16.6666L12.0063 15.7748L11.436 15.1443L12.2251 15.0153L12.5773 14.2054Z" fill="#F9CB38"/>
</svg>
