<svg width="20.665039" height="24.000000" viewBox="0 0 20.665 24" fill="none" xmlns="http://www.w3.org/2000/svg" xmlns:xlink="http://www.w3.org/1999/xlink">
	<path id="Vector" d="M9.99 24C9.65 23.99 9.33 23.86 9.08 23.63C8.83 23.4 8.68 23.08 8.66 22.74C8.64 22.4 8.75 22.07 8.97 21.81C9.19 21.55 9.5 21.38 9.84 21.34L9.99 21.33L16.66 21.33C16.99 21.33 17.3 21.21 17.55 20.99C17.79 20.77 17.95 20.48 17.98 20.15L17.99 20L17.99 4C17.99 3.67 17.87 3.35 17.66 3.11C17.44 2.87 17.14 2.71 16.82 2.67L16.66 2.66L10.66 2.66C10.32 2.66 9.99 2.53 9.75 2.3C9.5 2.06 9.35 1.75 9.33 1.41C9.31 1.07 9.42 0.73 9.64 0.47C9.86 0.21 10.17 0.04 10.5 0L10.66 0L16.66 0C17.68 0 18.66 0.38 19.4 1.08C20.15 1.78 20.59 2.74 20.65 3.76L20.66 4L20.66 20C20.66 21.02 20.27 22 19.57 22.74C18.87 23.48 17.91 23.93 16.89 23.99L16.66 24L9.99 24ZM8.94 16.71C8.7 16.95 8.37 17.09 8.04 17.1C7.7 17.11 7.37 16.99 7.11 16.77C6.86 16.54 6.7 16.23 6.67 15.89C6.64 15.55 6.73 15.22 6.94 14.95L7.05 14.82L8.55 13.33L1.33 13.33C0.99 13.33 0.66 13.2 0.41 12.96C0.17 12.73 0.02 12.41 0 12.07C-0.02 11.73 0.09 11.4 0.31 11.14C0.52 10.88 0.83 10.71 1.17 10.67L1.33 10.66L8.55 10.66L7.05 9.17C6.81 8.93 6.67 8.6 6.66 8.27C6.65 7.92 6.76 7.59 6.99 7.34C7.21 7.08 7.53 6.92 7.87 6.89C8.2 6.86 8.54 6.96 8.81 7.17L8.94 7.28L12.71 11.05C12.94 11.28 13.08 11.59 13.1 11.91C13.12 12.24 13.02 12.56 12.82 12.81L12.71 12.94L8.94 16.71Z" fill="#0060AE" fill-opacity="1.000000" fill-rule="nonzero"/>
</svg>
