<svg width="29.166992" height="29.093750" viewBox="0 0 29.167 29.0938" fill="none" xmlns="http://www.w3.org/2000/svg" xmlns:xlink="http://www.w3.org/1999/xlink">
	
	<path id="Vector" d="M29.16 14.58C29.16 6.53 22.63 0 14.58 0C6.53 0 0 6.53 0 14.58C0 21.64 5.01 27.51 11.66 28.87L11.66 18.95L8.75 18.95L8.75 14.58L11.66 14.58L11.66 10.93C11.66 8.12 13.95 5.83 16.77 5.83L20.41 5.83L20.41 10.2L17.5 10.2C16.69 10.2 16.04 10.86 16.04 11.66L16.04 14.58L20.41 14.58L20.41 18.95L16.04 18.95L16.04 29.09C23.4 28.36 29.16 22.15 29.16 14.58Z" fill="#0060AE" fill-opacity="1.000000" fill-rule="nonzero"/>
	<path id="Vector" d="M19.41 18.95L16.04 18.95L16.04 29.09C16.37 29.06 16.71 29.01 17.04 28.95C23.92 27.79 29.16 21.8 29.16 14.58C29.16 6.53 22.63 0 14.58 0C6.53 0 0 6.53 0 14.58C0 21.28 4.52 26.91 10.66 28.63C10.99 28.72 11.32 28.8 11.66 28.87L11.66 18.95L8.75 18.95L8.75 14.58L11.66 14.58L11.66 10.93C11.66 8.12 13.95 5.83 16.77 5.83L20.41 5.83L20.41 10.2L17.5 10.2C16.69 10.2 16.04 10.86 16.04 11.66L16.04 14.58L20.41 14.58L20.41 18.95L19.41 18.95ZM17.04 13.58L21.41 13.58L21.41 19.95L17.04 19.95L17.04 27.94Q18.95 27.61 20.61 26.79Q22.83 25.69 24.62 23.72Q26.38 21.79 27.27 19.52Q28.16 17.22 28.16 14.58Q28.16 11.78 27.17 9.38Q26.18 6.97 24.18 4.97Q22.19 2.98 19.78 1.98Q17.38 1 14.58 1Q11.78 1 9.38 1.98Q6.97 2.98 4.98 4.97Q2.98 6.97 1.98 9.38Q1 11.78 1 14.58Q1 17.04 1.78 19.21Q2.56 21.36 4.11 23.23Q5.68 25.13 7.68 26.31Q9.07 27.12 10.66 27.59L10.66 19.95L7.75 19.95L7.75 13.58L10.66 13.58L10.66 10.93Q10.66 9.68 11.1 8.61Q11.55 7.52 12.45 6.62Q13.35 5.72 14.44 5.27Q15.51 4.83 16.77 4.83L21.41 4.83L21.41 11.2L17.5 11.2Q17.27 11.2 17.15 11.32Q17.04 11.43 17.04 11.66L17.04 13.58Z" fill="#000000" fill-opacity="1.000000" fill-rule="evenodd"/>
</svg>
