<svg width="104.606445" height="21.254639" viewBox="0 0 104.606 21.2546" fill="none" xmlns="http://www.w3.org/2000/svg" xmlns:xlink="http://www.w3.org/1999/xlink">
	<desc>
			Created with Pixso.
	</desc>
	<defs>
		<linearGradient x1="10.522091" y1="1.294292" x2="-7.018473" y2="6.093042" id="paint_linear_200_1372_0" gradientUnits="userSpaceOnUse">
			<stop stop-color="#00A0FF"/>
			<stop offset="0.006570" stop-color="#00A1FF"/>
			<stop offset="0.260100" stop-color="#00BEFF"/>
			<stop offset="0.512200" stop-color="#00D2FF"/>
			<stop offset="0.760400" stop-color="#00DFFF"/>
			<stop offset="1.000000" stop-color="#00E3FF"/>
		</linearGradient>
		<linearGradient x1="21.235306" y1="10.625792" x2="-0.302101" y2="10.625792" id="paint_linear_200_1373_0" gradientUnits="userSpaceOnUse">
			<stop stop-color="#FFE000"/>
			<stop offset="0.408700" stop-color="#FFBD00"/>
			<stop offset="0.775400" stop-color="#FFA500"/>
			<stop offset="1.000000" stop-color="#FF9C00"/>
		</linearGradient>
		<linearGradient x1="12.936172" y1="12.785910" x2="-0.342291" y2="34.165974" id="paint_linear_200_1374_0" gradientUnits="userSpaceOnUse">
			<stop stop-color="#FF3A44"/>
			<stop offset="1.000000" stop-color="#C31162"/>
		</linearGradient>
		<linearGradient x1="-2.387919" y1="-5.752059" x2="3.478466" y2="4.396444" id="paint_linear_200_1375_0" gradientUnits="userSpaceOnUse">
			<stop stop-color="#32A071"/>
			<stop offset="0.068500" stop-color="#2DA771"/>
			<stop offset="0.476200" stop-color="#15CF74"/>
			<stop offset="0.800900" stop-color="#06E775"/>
			<stop offset="1.000000" stop-color="#00F076"/>
		</linearGradient>
	</defs>
	<path id="Vector" d="M53.26 8.47C51.17 8.47 49.47 9.94 49.47 11.98C49.47 14 51.18 15.5 53.26 15.5C55.36 15.5 57.06 14.01 57.06 11.98C57.06 9.94 55.36 8.47 53.26 8.47ZM53.26 14.1C52.12 14.1 51.13 13.22 51.13 11.97C51.13 10.71 52.12 9.84 53.26 9.84C54.41 9.84 55.4 10.71 55.4 11.97C55.4 13.23 54.41 14.1 53.26 14.1ZM44.98 8.47C42.88 8.47 41.18 9.94 41.18 11.98C41.18 14 42.89 15.5 44.98 15.5C47.08 15.5 48.78 14.01 48.78 11.98C48.78 9.94 47.07 8.47 44.98 8.47ZM44.98 14.1C43.83 14.1 42.84 13.22 42.84 11.97C42.84 10.71 43.83 9.84 44.98 9.84C46.12 9.84 47.11 10.71 47.11 11.97C47.11 13.23 46.12 14.1 44.98 14.1ZM35.12 9.54L35.12 11.03L38.96 11.03C38.85 11.86 38.55 12.48 38.09 12.9C37.53 13.42 36.66 13.99 35.13 13.99C32.76 13.99 30.91 12.22 30.91 10.03C30.91 7.83 32.76 6.06 35.13 6.06C36.4 6.06 37.33 6.53 38.02 7.13L39.16 6.07C38.2 5.22 36.92 4.56 35.13 4.56C31.89 4.56 29.17 7.02 29.17 10.02C29.17 13.03 31.89 15.47 35.13 15.47C36.89 15.47 38.2 14.94 39.24 13.94C40.3 12.96 40.63 11.57 40.63 10.45C40.63 10.1 40.6 9.79 40.54 9.52L35.12 9.52C35.12 9.52 35.12 9.54 35.12 9.54ZM75.45 10.7C75.13 9.91 74.17 8.46 72.2 8.46C70.25 8.46 68.63 9.88 68.63 11.97C68.63 13.95 70.24 15.49 72.39 15.49C74.12 15.49 75.13 14.51 75.55 13.93L74.26 13.13C73.83 13.72 73.24 14.1 72.4 14.1C71.55 14.1 70.96 13.74 70.56 13.04L75.62 11.09C75.62 11.09 75.45 10.7 75.45 10.7ZM70.28 11.87C70.24 10.51 71.42 9.82 72.26 9.82C72.93 9.82 73.48 10.13 73.67 10.57L70.28 11.87ZM66.17 15.28L67.83 15.28L67.83 4.95L66.17 4.95L66.17 15.28ZM63.44 9.25L63.38 9.25C63.01 8.83 62.29 8.46 61.38 8.46C59.49 8.46 57.75 10 57.75 11.98C57.75 13.96 59.49 15.48 61.38 15.48C62.28 15.48 63.01 15.11 63.38 14.68L63.44 14.68L63.44 15.19C63.44 16.53 62.67 17.25 61.42 17.25C60.4 17.25 59.77 16.57 59.51 16L58.07 16.56C58.48 17.49 59.59 18.64 61.42 18.64C63.37 18.64 65.02 17.57 65.02 14.98L65.02 8.67L63.45 8.67L63.45 9.25C63.45 9.25 63.44 9.25 63.44 9.25ZM61.53 14.1C60.38 14.1 59.42 13.21 59.42 11.98C59.42 10.74 60.38 9.84 61.53 9.84C62.67 9.84 63.55 10.75 63.55 11.98C63.56 13.21 62.67 14.1 61.53 14.1ZM83.23 4.95L79.26 4.95L79.26 15.28L80.92 15.28L80.92 11.37L83.23 11.37C85.07 11.37 86.88 10.13 86.88 8.16C86.88 6.2 85.08 4.95 83.23 4.95ZM83.28 9.93L80.92 9.93L80.92 6.38L83.28 6.38C84.53 6.38 85.23 7.34 85.23 8.15C85.23 8.96 84.52 9.93 83.28 9.93ZM93.55 8.45C92.34 8.45 91.09 8.94 90.58 10.03L92.05 10.59C92.37 10.03 92.95 9.83 93.57 9.83C94.43 9.83 95.3 10.31 95.32 11.16L95.32 11.27C95.02 11.12 94.37 10.88 93.59 10.88C91.99 10.88 90.38 11.68 90.38 13.2C90.38 14.59 91.69 15.48 93.14 15.48C94.26 15.48 94.87 15.01 95.25 14.47L95.32 14.47L95.32 15.27L96.92 15.27L96.92 11.31C96.92 9.47 95.44 8.45 93.55 8.45ZM93.34 14.1C92.79 14.1 92.03 13.86 92.03 13.22C92.03 12.42 92.98 12.12 93.79 12.12C94.53 12.12 94.87 12.27 95.31 12.47C95.19 13.4 94.34 14.1 93.34 14.1ZM102.76 8.67L100.86 13.15L100.8 13.15L98.82 8.67L97.03 8.67L100 14.93L98.3 18.41L100.04 18.41L104.6 8.67L102.76 8.67ZM87.8 15.28L89.46 15.28L89.46 4.95L87.8 4.95L87.8 15.28Z" fill="#FFFFFF" fill-opacity="1.000000" fill-rule="evenodd"/>
	<path id="Vector" d="M0.4 0.32C0.14 0.58 0 0.97 0 1.49L0 19.76C0 20.27 0.14 20.67 0.41 20.91L0.48 20.97L11.51 10.73L11.51 10.5L0.47 0.26L0.4 0.32Z" fill="url(#paint_linear_200_1372_0)" fill-opacity="1.000000" fill-rule="evenodd"/>
	<path id="Vector" d="M15.18 14.15L11.5 10.74L11.5 10.5L15.18 7.09L15.26 7.13L19.61 9.43C20.85 10.08 20.85 11.15 19.61 11.81L15.26 14.11L15.18 14.15Z" fill="url(#paint_linear_200_1373_0)" fill-opacity="1.000000" fill-rule="evenodd"/>
	<path id="Vector" d="M15 14.28L11.2 11L0 20.69C0.41 21.07 1.09 21.11 1.86 20.74L15 14.28Z" fill="url(#paint_linear_200_1374_0)" fill-opacity="1.000000" fill-rule="evenodd"/>
	<path id="Vector" d="M15.26 7.13L2.25 0.27C1.49 -0.13 0.81 -0.07 0.4 0.33L11.5 10.62L15.26 7.13Z" fill="url(#paint_linear_200_1375_0)" fill-opacity="1.000000" fill-rule="evenodd"/>
	<g opacity="0.200000">
		<path id="Vector" d="M15.18 14.04L2.26 20.85C1.54 21.23 0.89 21.21 0.48 20.86L0.41 20.92L0.48 20.98C0.89 21.32 1.54 21.35 2.26 20.97L15.26 14.11L15.18 14.04Z" fill="#373D47" fill-opacity="1.000000" fill-rule="evenodd"/>
	</g>
	<g opacity="0.120000">
		<path id="Vector" d="M19.61 11.69L15.16 14.04L15.25 14.11L19.6 11.81C20.22 11.48 20.53 11.05 20.53 10.62C20.49 11.02 20.17 11.39 19.61 11.69Z" fill="#373D47" fill-opacity="1.000000" fill-rule="evenodd"/>
	</g>
	<g opacity="0.250000">
		<path id="Vector" d="M2.25 0.39L19.61 9.55C20.17 9.84 20.49 10.23 20.54 10.62C20.54 10.19 20.23 9.76 19.61 9.43L2.25 0.28C1 -0.39 0 0.17 0 1.49L0 1.61C0 0.28 1 -0.26 2.25 0.39Z" fill="#FFFFFF" fill-opacity="1.000000" fill-rule="evenodd"/>
	</g>
</svg>
