<svg width="40" height="28" viewBox="0 0 40 28" fill="none" xmlns="http://www.w3.org/2000/svg">
<path d="M40 20.625C40 24.4219 37.8919 27.5 33.75 27.5H6.25C2.10813 27.5 0 24.4219 0 20.625V6.875C0 3.07812 2.10813 0 6.25 0H33.75C37.8919 0 40 3.07812 40 6.875V20.625Z" fill="#EC1C24"/>
<path fill-rule="evenodd" clip-rule="evenodd" d="M16.7548 7.16498C17.1098 7.29061 17.3554 7.53186 17.521 7.86623C17.6666 8.16311 17.7791 8.47561 17.951 8.75998C18.0098 8.85686 18.0785 8.94811 18.1404 9.04248C18.1698 9.08936 18.2004 9.09436 18.2466 9.06686C18.2741 9.04998 18.3066 9.03873 18.3385 9.02748C18.366 9.01686 18.376 9.00436 18.3641 8.97248C18.2035 8.53998 18.1748 8.08186 18.0879 7.63311C18.0273 7.30679 17.9008 6.99628 17.716 6.72061C17.7085 6.70936 17.7035 6.69686 17.6885 6.66686C18.0023 6.82873 18.216 7.05811 18.3473 7.36436C18.4704 7.65248 18.5385 7.95873 18.631 8.25623C18.686 8.42936 18.7579 8.59498 18.8354 8.75811C18.8648 8.82311 18.8991 8.84061 18.9691 8.81998C19.1029 8.78061 19.0998 8.78436 19.0798 8.63936C19.052 8.42965 19.0376 8.21839 19.0366 8.00686C19.0335 7.63561 19.0429 7.26498 18.9654 6.89748C18.9236 6.71432 18.8644 6.53558 18.7885 6.36373C19.0835 6.58373 19.2441 6.86123 19.3304 7.18498C19.4129 7.49936 19.4435 7.82373 19.4966 8.14436C19.5241 8.30477 19.5604 8.4629 19.6054 8.61873C19.6216 8.68186 19.6485 8.70748 19.7123 8.69311C19.7218 8.69102 19.731 8.69019 19.7398 8.69061C19.8641 8.67936 19.8654 8.67936 19.8654 8.55498C19.8623 8.18686 19.9548 7.83311 20.041 7.47873C20.1366 7.09061 20.1723 6.69936 20.1098 6.30248C20.1079 6.28873 20.1091 6.27498 20.1091 6.24561C20.3179 6.50248 20.4091 6.78498 20.4179 7.09623C20.4273 7.38498 20.3929 7.67248 20.371 7.95873C20.356 8.17616 20.36 8.39449 20.3829 8.61123C20.3935 8.72061 20.4823 8.67561 20.5385 8.69061C20.6066 8.70998 20.5998 8.65561 20.6066 8.61436C20.661 8.24123 20.8023 7.89498 20.9441 7.54748C21.0766 7.22248 21.1766 6.88935 21.1691 6.5331C21.1691 6.46248 21.1623 6.39311 21.1579 6.30623C21.2591 6.44061 21.3154 6.58061 21.3541 6.72811C21.4398 7.05498 21.3885 7.37811 21.3123 7.69998C21.2479 7.97123 21.1623 8.23748 21.1273 8.51436C21.1191 8.57248 21.1191 8.63061 21.1091 8.68748C21.0966 8.75373 21.116 8.77873 21.1829 8.79248C21.326 8.81998 21.3273 8.82561 21.3785 8.68311C21.4879 8.37186 21.6573 8.09123 21.8279 7.81061C21.9804 7.55998 22.1335 7.30748 22.2135 7.01998C22.2516 6.88061 22.2741 6.73936 22.2798 6.57311C22.3673 6.71248 22.406 6.84748 22.4204 6.98936C22.4473 7.22623 22.3904 7.45123 22.3054 7.67123C22.1779 8.00186 22.0073 8.31561 21.9041 8.65686C21.8773 8.74248 21.8585 8.82873 21.8341 8.91436C21.8198 8.96811 21.836 8.99561 21.8904 9.01623C22.0173 9.06248 22.0141 9.06623 22.0785 8.94186C22.2598 8.58811 22.5191 8.29373 22.7773 7.99873C22.9448 7.80936 23.1054 7.61748 23.2085 7.38373C23.2585 7.26811 23.2935 7.14748 23.3148 7.00373C23.3723 7.14623 23.3791 7.27873 23.3735 7.40998C23.3604 7.67936 23.2566 7.92123 23.1235 8.15186C22.946 8.45873 22.7329 8.74623 22.5829 9.06873C22.5554 9.12811 22.5354 9.18811 22.5079 9.24686C22.4854 9.29311 22.4985 9.31623 22.5423 9.34123C22.651 9.40623 22.651 9.40936 22.7235 9.30811C22.9654 8.96811 23.2916 8.71748 23.6066 8.45248C23.8416 8.25436 24.0673 8.04686 24.1991 7.75998C24.226 7.70311 24.2473 7.64373 24.2779 7.57061C24.3323 7.98436 24.2098 8.32873 23.976 8.64311C23.7641 8.92561 23.5085 9.17248 23.3066 9.46186C23.2503 9.54232 23.1968 9.62466 23.146 9.70873C23.0998 9.78123 23.1804 9.79061 23.2079 9.82623C23.2341 9.86123 23.2591 9.85311 23.2885 9.82311C23.5385 9.56498 23.8373 9.37248 24.1348 9.17811C24.3998 9.00498 24.6673 8.83623 24.8866 8.60561C24.9729 8.51498 25.0479 8.41623 25.1229 8.31436C25.1229 8.52498 25.0666 8.71811 24.966 8.89936C24.8066 9.18686 24.5616 9.39686 24.3141 9.60311C24.0923 9.78873 23.8679 9.96873 23.6754 10.1862C23.6241 10.2431 23.6523 10.2706 23.6866 10.3144C23.7241 10.3606 23.7485 10.3725 23.8035 10.3325C24.0273 10.1681 24.2791 10.0544 24.5329 9.94686C25.0098 9.74373 25.4916 9.55248 25.871 9.13623C25.8609 9.33378 25.7923 9.52388 25.6741 9.68248C25.5304 9.87623 25.336 10.01 25.1348 10.1331C24.8023 10.3362 24.4554 10.515 24.151 10.7581C24.0804 10.8137 24.0779 10.855 24.131 10.92C24.1535 10.9469 24.1666 10.9625 24.2035 10.9456C24.6091 10.755 25.0479 10.6737 25.4766 10.56C25.7648 10.4831 26.0466 10.3919 26.2923 10.2131C26.3435 10.1756 26.391 10.1331 26.4423 10.0912C26.4641 10.2237 26.3823 10.4169 26.2529 10.5462C26.0735 10.73 25.8466 10.8381 25.6135 10.9356C25.2441 11.0919 24.8641 11.2206 24.5066 11.4044C24.4148 11.4512 24.4035 11.5062 24.4685 11.5925C24.4823 11.6119 24.496 11.6119 24.5135 11.6075C25.0679 11.4719 25.6385 11.4694 26.1979 11.3694C26.4414 11.3304 26.6748 11.2437 26.8848 11.1144C26.8616 11.3 26.7579 11.4156 26.6254 11.51C26.4285 11.6525 26.1979 11.7225 25.9673 11.785C25.5648 11.8925 25.156 11.97 24.7585 12.0975C24.661 12.1294 24.6341 12.2162 24.6916 12.3C24.7048 12.3206 24.7229 12.3169 24.7398 12.3162C25.1966 12.2931 25.6523 12.3494 26.1079 12.3706C26.4591 12.3869 26.8066 12.3731 27.1448 12.2406C27.0923 12.3737 26.926 12.5162 26.7491 12.5931C26.4816 12.7075 26.1991 12.7337 25.9141 12.7587C25.5691 12.7881 25.2229 12.7975 24.8798 12.8506C24.8404 12.8575 24.7735 12.8412 24.7885 12.9181C24.7991 12.9775 24.766 13.06 24.8816 13.0687C25.2216 13.0925 25.5523 13.1737 25.8866 13.24C26.3348 13.3281 26.7816 13.42 27.2541 13.3312C27.1823 13.4944 27.0523 13.5625 26.9048 13.6037C26.5991 13.6869 26.2891 13.6494 25.9798 13.6306C25.616 13.6094 25.2516 13.5719 24.8873 13.5862C24.8416 13.5887 24.7891 13.5781 24.7979 13.6519C24.8054 13.7112 24.7441 13.7856 24.866 13.8119C25.2379 13.8937 25.5891 14.0425 25.9454 14.1725C26.3241 14.3106 26.7085 14.4219 27.1173 14.4125C27.126 14.4125 27.1335 14.4169 27.1535 14.4237C27.0288 14.5457 26.8655 14.6204 26.6916 14.635C26.3185 14.6812 25.9604 14.5931 25.6004 14.5175C25.3341 14.4591 25.0677 14.4027 24.801 14.3481C24.7629 14.3412 24.706 14.3069 24.6898 14.3831C24.6785 14.4431 24.6448 14.4956 24.7391 14.5362C25.101 14.6894 25.4341 14.8969 25.7773 15.0887C26.0248 15.2281 26.2741 15.3656 26.5473 15.4525C26.6585 15.4881 26.7723 15.5075 26.8998 15.5244C26.8164 15.596 26.7125 15.6393 26.6029 15.6481C26.3416 15.6819 26.0985 15.6106 25.8573 15.5262C25.4816 15.3962 25.1204 15.2256 24.7404 15.1069C24.676 15.0862 24.6091 15.0737 24.546 15.0506C24.4979 15.0325 24.471 15.0506 24.4691 15.0937C24.4666 15.1444 24.3716 15.1962 24.451 15.2419C24.9779 15.5475 25.4273 15.9619 25.9248 16.3087C26.0891 16.4237 26.2623 16.5206 26.476 16.5544C26.3179 16.66 26.1585 16.6481 25.9973 16.6119C25.6566 16.5356 25.366 16.3431 25.0716 16.1731C24.7998 16.0194 24.5379 15.8487 24.2535 15.7175C24.1991 15.6931 24.1641 15.6856 24.1398 15.7494C24.121 15.8006 24.0479 15.835 24.1366 15.9044C24.5085 16.1906 24.7998 16.5581 25.1154 16.9C25.2998 17.0975 25.481 17.3 25.7279 17.4219C25.7773 17.4469 25.8285 17.4656 25.8785 17.4887C25.7885 17.5581 25.5341 17.5244 25.371 17.4581C25.1791 17.3755 25 17.2659 24.8391 17.1325C24.531 16.8944 24.2491 16.6244 23.9335 16.395C23.9148 16.3812 23.8948 16.365 23.8741 16.3512C23.7666 16.2787 23.7091 16.2962 23.6516 16.4162C23.6366 16.4462 23.6554 16.455 23.6685 16.4687C23.9841 16.7844 24.2048 17.1687 24.4448 17.5387C24.6073 17.7894 24.7848 18.0281 25.026 18.2094C25.0779 18.2469 25.1316 18.2806 25.1954 18.325C25.0016 18.3712 24.8398 18.3212 24.6848 18.2344C24.5091 18.1356 24.3654 17.9969 24.2279 17.8512C23.9498 17.5544 23.7029 17.2275 23.4116 16.9412L23.3666 16.8956C23.2685 16.805 23.2235 16.8112 23.1429 16.9187C23.1235 16.9419 23.1335 16.9562 23.1466 16.9731C23.4648 17.4075 23.646 17.9131 23.8785 18.3912C23.9991 18.64 24.1241 18.8856 24.3441 19.07C24.2516 19.0944 24.1254 19.0644 24.0148 18.9994C23.8454 18.9037 23.7166 18.7644 23.6016 18.6112C23.4385 18.3962 23.3029 18.1631 23.161 17.9337C23.0336 17.7242 22.8959 17.521 22.7485 17.325C22.6879 17.2462 22.6498 17.2881 22.5916 17.3181C22.5198 17.3537 22.5441 17.3919 22.5685 17.4412C22.7335 17.7794 22.8079 18.1469 22.9023 18.5081C22.9766 18.7887 23.0441 19.0731 23.1773 19.3344C23.231 19.4412 23.2979 19.5394 23.3729 19.6369C23.2582 19.6216 23.1507 19.5724 23.0641 19.4956C22.8679 19.3312 22.7479 19.1156 22.6429 18.8881C22.4854 18.5462 22.3629 18.1887 22.1816 17.8575C22.151 17.8006 22.1123 17.7494 22.0841 17.6906C22.0523 17.6256 22.0191 17.6194 21.9498 17.6481C21.8754 17.68 21.8573 17.705 21.8848 17.785C22.0191 18.16 22.0485 18.5556 22.0941 18.9481C22.1329 19.28 22.156 19.6137 22.2923 19.9256C22.3148 19.9794 22.3423 20.0306 22.3741 20.0962C22.2567 20.0547 22.1522 19.9832 22.071 19.8887C21.8966 19.7031 21.811 19.47 21.7448 19.2294C21.641 18.8644 21.576 18.4869 21.4491 18.1294C21.4216 18.0537 21.3866 17.9825 21.3591 17.9081C21.3298 17.8294 21.2766 17.8819 21.236 17.8881C21.1998 17.8937 21.1429 17.8856 21.1523 17.9562C21.2173 18.4081 21.1654 18.8619 21.1585 19.315C21.1541 19.6669 21.1716 20.0137 21.306 20.3506C21.161 20.2987 21.0298 20.1531 20.9498 19.9694C20.8429 19.7212 20.8129 19.4569 20.7854 19.1906C20.7491 18.835 20.741 18.4744 20.676 18.1206C20.6516 17.9856 20.6535 17.9881 20.5229 18.0012C20.4798 18.0044 20.4654 18.0181 20.4654 18.0619C20.4679 18.4675 20.4023 18.8681 20.3479 19.2687C20.2941 19.6562 20.2529 20.0456 20.3435 20.4606C20.1392 20.2303 20.0107 19.9427 19.9754 19.6369C19.9379 19.3362 19.9848 19.0375 20.0048 18.7381C20.0185 18.5206 20.0329 18.3037 19.9998 18.0869C19.991 18.0331 19.9729 18.0162 19.9198 18.0137C19.7423 18.0019 19.7441 18.0006 19.7141 18.1781C19.6529 18.5531 19.5154 18.9037 19.3973 19.2619C19.3004 19.5562 19.2091 19.8512 19.206 20.1662C19.2054 20.2356 19.2123 20.3069 19.216 20.3931C19.1221 20.2869 19.0554 20.1595 19.0216 20.0219C18.9479 19.7462 18.9804 19.4687 19.0279 19.1931C19.0879 18.8337 19.1835 18.48 19.2041 18.1137L19.2073 18.0587C19.2098 17.9219 19.1904 17.9012 19.056 17.8925C19.0266 17.8906 19.0104 17.8975 19.0023 17.9275C18.8748 18.4844 18.5723 18.9669 18.3441 19.4794C18.2485 19.6969 18.1635 19.9137 18.161 20.1575C18.0554 19.9906 18.0191 19.8056 18.0191 19.6125C18.0191 19.2806 18.1354 18.9744 18.2379 18.6675C18.3316 18.3881 18.4391 18.1156 18.4941 17.8244C18.4978 17.805 18.497 17.785 18.4917 17.7659C18.4865 17.7469 18.477 17.7293 18.4639 17.7145C18.4508 17.6998 18.4345 17.6882 18.4162 17.6807C18.398 17.6732 18.3782 17.6699 18.3585 17.6712C18.3348 17.6725 18.3266 17.6881 18.3191 17.7044C18.1191 18.1687 17.7785 18.5431 17.5048 18.9606C17.3429 19.2081 17.2041 19.465 17.131 19.7731C17.0666 19.6331 17.0629 19.4981 17.0648 19.3637C17.0673 19.0881 17.1585 18.8356 17.2766 18.5906C17.4341 18.2644 17.6291 17.9594 17.7748 17.6269C17.7798 17.6137 17.7873 17.5994 17.7923 17.5844C17.8648 17.39 17.8735 17.45 17.7004 17.34C17.6723 17.3212 17.6535 17.325 17.6335 17.3531C17.3335 17.775 16.9366 18.11 16.6048 18.505C16.4204 18.7199 16.272 18.9633 16.1654 19.2256C16.1166 19.1281 16.106 18.935 16.1348 18.7787C16.1791 18.5344 16.2935 18.3225 16.4373 18.1269C16.6229 17.8787 16.8173 17.6369 17.0054 17.3912C17.0823 17.2906 17.1473 17.1831 17.2085 17.0744C17.2666 16.9719 17.1535 16.9731 17.1204 16.9269C17.086 16.8781 17.0648 16.9294 17.046 16.95C16.821 17.2037 16.5473 17.4019 16.2748 17.6C16.0085 17.7931 15.7373 17.9775 15.5135 18.2212C15.4269 18.3197 15.3509 18.4269 15.2866 18.5412C15.2523 18.3187 15.3023 18.1319 15.3941 17.9525C15.4898 17.7644 15.6254 17.6069 15.7729 17.4581C16.0429 17.1825 16.346 16.9394 16.5985 16.6444L16.6223 16.6169C16.6923 16.5337 16.6723 16.4369 16.5766 16.3837C16.5529 16.3712 16.5423 16.3862 16.5304 16.3969C16.1891 16.6856 15.7816 16.8612 15.3904 17.065C15.1291 17.2006 14.8729 17.3456 14.6741 17.5719C14.6329 17.6181 14.5948 17.67 14.546 17.7319C14.5287 17.6073 14.5483 17.4804 14.6023 17.3669C14.7116 17.1156 14.9066 16.9394 15.1248 16.7869C15.3885 16.6037 15.6579 16.4256 15.9216 16.2431C16.0279 16.1706 16.1279 16.0881 16.2148 15.9925C16.281 15.9181 16.1816 15.8837 16.1666 15.8294C16.1548 15.7906 16.1279 15.7925 16.0941 15.8119C15.7454 16.0119 15.3579 16.1131 14.981 16.2394C14.6679 16.3444 14.356 16.4487 14.0854 16.6531C14.0316 16.6944 13.9829 16.74 13.9185 16.7937C13.9248 16.6941 13.9548 16.5975 14.006 16.5119C14.121 16.3119 14.2948 16.1712 14.4879 16.055C14.7554 15.8919 15.0416 15.765 15.3241 15.6306C15.4946 15.5485 15.6614 15.4585 15.8248 15.3606C15.9354 15.295 15.836 15.2375 15.8229 15.1775C15.8091 15.1044 15.7591 15.1431 15.7241 15.1556C15.3698 15.2831 14.9979 15.3262 14.6298 15.3919C14.2854 15.4537 13.9398 15.5075 13.6241 15.6687C13.5685 15.6975 13.5135 15.7319 13.4373 15.7737C13.5004 15.6306 13.581 15.5287 13.6804 15.4387C13.8941 15.2456 14.1504 15.1319 14.4185 15.0406C14.7891 14.9125 15.1735 14.8281 15.5423 14.6956C15.6185 14.6681 15.6385 14.6419 15.6179 14.5587C15.5923 14.4656 15.5641 14.4369 15.4598 14.4487C15.0623 14.4981 14.6641 14.4825 14.2648 14.4919C13.9985 14.5006 13.7316 14.5087 13.4704 14.5775C13.3791 14.6031 13.2904 14.6337 13.2029 14.675C13.1854 14.6787 13.1787 14.6714 13.1829 14.6531C13.4235 14.3381 13.7648 14.2081 14.1379 14.1375C14.471 14.0731 14.8129 14.0619 15.1498 14.0106C15.2423 13.9962 15.3354 13.9731 15.4298 13.9587C15.476 13.9519 15.4879 13.9312 15.4848 13.8856C15.4748 13.7187 15.476 13.72 15.3148 13.7131C14.9903 13.6944 14.6671 13.6577 14.3466 13.6031C13.911 13.5344 13.4741 13.4594 13.0098 13.58C13.1404 13.4144 13.2929 13.3281 13.4666 13.2744C13.7804 13.1775 14.1035 13.1987 14.4241 13.21C14.7404 13.2206 15.0554 13.2319 15.3716 13.2031C15.4991 13.1919 15.4448 13.1012 15.4629 13.0419C15.4848 12.97 15.4298 12.97 15.3854 12.9644C14.9716 12.9012 14.5779 12.7612 14.1804 12.6381C13.8285 12.53 13.4723 12.4412 13.0954 12.4731C13.1535 12.4094 13.3016 12.3419 13.4654 12.2925C13.776 12.2012 14.0885 12.2194 14.4029 12.2675C14.7491 12.3212 15.0891 12.4056 15.4391 12.4231C15.4594 12.4249 15.4799 12.4219 15.4987 12.4143C15.5176 12.4067 15.5345 12.3947 15.5478 12.3793C15.5612 12.364 15.5707 12.3456 15.5756 12.3259C15.5805 12.3061 15.5806 12.2854 15.576 12.2656C15.5704 12.235 15.5466 12.2375 15.5279 12.2331C15.2048 12.1562 14.9148 12.0062 14.6316 11.8394C14.246 11.6106 13.8373 11.46 13.3885 11.4244C13.3616 11.4219 13.336 11.4162 13.2929 11.41C13.5706 11.287 13.8763 11.2412 14.1779 11.2775C14.501 11.3156 14.7985 11.4419 15.0998 11.5525C15.2829 11.6206 15.4691 11.6825 15.6616 11.72C15.716 11.7306 15.7498 11.7256 15.7635 11.6662C15.7715 11.6368 15.783 11.6085 15.7979 11.5819C15.8129 11.5475 15.8085 11.5287 15.7704 11.5125C15.356 11.3444 15.0129 11.0644 14.6598 10.8006C14.3848 10.595 14.091 10.4275 13.7491 10.3612C13.7373 10.3594 13.7241 10.3569 13.7223 10.3375C14.2035 10.2656 14.6641 10.3056 15.0929 10.56C15.3723 10.7256 15.6435 10.9056 15.9548 11.0081C15.9991 11.0231 16.0473 11.0625 16.0898 10.9912C16.1541 10.8819 16.1566 10.8844 16.0479 10.8169C15.7851 10.6514 15.5515 10.4436 15.3566 10.2019C15.0629 9.84873 14.716 9.57061 14.2835 9.40561C14.2729 9.40248 14.2654 9.39311 14.2448 9.37811C14.7473 9.36248 15.1773 9.50811 15.5554 9.81998C15.8085 10.0275 16.0548 10.2462 16.3541 10.3912C16.3904 10.4094 16.431 10.455 16.4679 10.4275C16.5154 10.3919 16.551 10.3375 16.586 10.2887C16.6041 10.2644 16.576 10.2494 16.561 10.2375C16.2485 9.96811 16.0185 9.63061 15.7829 9.29748C15.566 8.99061 15.3079 8.72873 14.9785 8.54123C14.9685 8.53561 14.9604 8.52748 14.9491 8.51936C15.0504 8.49873 15.2073 8.52248 15.3591 8.57311C15.6079 8.65748 15.8166 8.80498 16.0041 8.98623C16.2516 9.22436 16.4685 9.49373 16.7266 9.71936C16.786 9.77186 16.8504 9.82123 16.9129 9.86998C17.0023 9.93873 17.0216 9.82811 17.0729 9.80311C17.1304 9.77561 17.0854 9.74436 17.0641 9.71873C16.8441 9.45811 16.6954 9.15623 16.5529 8.85061C16.3948 8.50936 16.2154 8.18311 15.941 7.91686C15.8873 7.86311 15.8298 7.81311 15.7691 7.75498C15.8454 7.74436 15.9073 7.77686 15.9698 7.79936C16.2823 7.91498 16.5248 8.11873 16.721 8.38248C16.9223 8.65061 17.0916 8.93936 17.311 9.19186C17.3743 9.26352 17.4393 9.3329 17.506 9.39998C17.5879 9.48311 17.6266 9.37623 17.6841 9.35436C17.7435 9.33248 17.6973 9.29498 17.6816 9.26748C17.4773 8.91686 17.3735 8.52811 17.2516 8.14623C17.1366 7.78936 16.9735 7.46061 16.7154 7.18311C16.7148 7.15186 16.7316 7.15311 16.7548 7.16311" fill="#FEFE00"/>
<path fill-rule="evenodd" clip-rule="evenodd" d="M24.2054 13.3575C24.2039 14.4361 23.7742 15.4699 23.0108 16.2318C22.2474 16.9937 21.2127 17.4213 20.1341 17.4206C19.6001 17.4205 19.0713 17.3152 18.578 17.1105C18.0847 16.9058 17.6365 16.6059 17.2593 16.2279C16.882 15.8498 16.583 15.4011 16.3793 14.9074C16.1756 14.4137 16.0713 13.8847 16.0723 13.3506C16.0743 12.2736 16.5032 11.2413 17.2651 10.48C18.027 9.71868 19.0596 9.29053 20.1366 9.28937C22.3766 9.28562 24.2073 11.1175 24.2054 13.3575Z" fill="#EC1C24"/>
<path fill-rule="evenodd" clip-rule="evenodd" d="M22.7813 11.0881C22.5744 11.0888 22.3825 11.0856 22.1907 11.1025C21.498 11.1568 20.8274 11.3707 20.2313 11.7275C20.1644 11.7688 20.1182 11.7688 20.0532 11.7194C19.6763 11.44 19.2444 11.2913 18.7907 11.1981C18.4873 11.1362 18.1794 11.0994 17.87 11.0881C17.7607 11.0831 17.6513 11.0869 17.5257 11.0869C18.6919 9.62125 21.2813 9.34625 22.7813 11.0881ZM19.0894 12.4519C18.6282 12.8654 18.25 13.363 17.975 13.9181C17.6994 14.475 17.5444 15.0613 17.5657 15.7031C17.4473 15.5896 17.3434 15.462 17.2563 15.3231C16.7438 14.5473 16.5607 13.7002 16.7069 12.7819C16.7444 12.5544 16.8046 12.3331 16.8875 12.1181C16.9019 12.0788 16.9144 12.0494 16.9682 12.0494C17.6944 12.0494 18.405 12.1294 19.075 12.4363C19.0769 12.4369 19.0775 12.4406 19.0894 12.4519ZM22.7813 15.625C22.7563 14.3019 22.1819 13.2594 21.1507 12.435C21.2557 12.395 21.3488 12.355 21.445 12.3219C22.005 12.1263 22.5782 12.0156 23.1744 12.0281C23.3738 12.0325 23.3763 12.03 23.4425 12.2188C23.635 12.7675 23.6825 13.33 23.5938 13.9044C23.4995 14.5133 23.2449 15.0862 22.8563 15.5644C22.8388 15.5863 22.8257 15.6156 22.7813 15.625ZM20.1557 13.3506C20.3419 13.6106 20.4763 13.8856 20.5788 14.1738C20.8284 14.8788 20.9088 15.6029 20.82 16.3463C20.8044 16.4794 20.7719 16.6106 20.7507 16.7444C20.7438 16.7931 20.7188 16.8063 20.6732 16.8138C20.3619 16.8638 20.0507 16.8588 19.7382 16.8319C19.64 16.8231 19.6032 16.7869 19.5825 16.6869C19.4307 15.9188 19.4494 15.1588 19.665 14.4063C19.7696 14.0299 19.9353 13.6732 20.1557 13.3506ZM20.8182 12.7488C21.0863 12.9456 21.3094 13.1844 21.5057 13.4481C21.9142 13.9907 22.1878 14.6227 22.3038 15.2919C22.3475 15.5338 22.36 15.7775 22.3525 16.0244C22.3507 16.0488 22.3525 16.0738 22.3288 16.0894C22.2194 16.1669 22.1194 16.2588 21.98 16.3294C22.0882 14.9669 21.5625 13.8231 20.8182 12.7488Z" fill="#FEFE00"/>
<path fill-rule="evenodd" clip-rule="evenodd" d="M18.3348 16.3375C18.2105 16.2812 18.1155 16.1968 18.0142 16.125C17.988 16.1062 17.9867 16.08 17.9867 16.0512C17.9605 14.8731 18.3111 13.8387 19.1592 12.9956C19.2498 12.905 19.3473 12.8237 19.4836 12.7437C18.6767 13.8212 18.2598 14.9956 18.3348 16.3375ZM19.8611 13.075C19.1542 14.195 18.9823 15.4106 19.1248 16.7068L18.8236 16.595C18.783 16.58 18.7961 16.5443 18.7942 16.5175C18.757 16.0369 18.784 15.5535 18.8742 15.08C18.9711 14.5493 19.1298 14.04 19.4086 13.5743C19.5028 13.4125 19.6208 13.2656 19.7586 13.1387C19.7892 13.1131 19.8167 13.0862 19.8611 13.075ZM21.2417 16.6775C21.4498 15.3762 21.153 14.1975 20.4848 13.0981C20.5142 13.0831 20.5261 13.1187 20.5417 13.1343C20.8692 13.4687 21.1005 13.8625 21.2642 14.2956C21.5342 15.005 21.6048 15.74 21.5373 16.4912C21.5317 16.5506 21.5136 16.5868 21.453 16.6043C21.3861 16.6225 21.3205 16.6493 21.2417 16.6775Z" fill="#FEFE00"/>
</svg>
