<svg width="40" height="28" viewBox="0 0 40 28" fill="none" xmlns="http://www.w3.org/2000/svg">
<path d="M40 20.625C40 24.4219 37.8919 27.5 33.75 27.5H6.25C2.10813 27.5 0 24.4219 0 20.625V6.875C0 3.07812 2.10813 0 6.25 0H33.75C37.8919 0 40 3.07812 40 6.875V20.625Z" fill="#1B75BB"/>
<path fill-rule="evenodd" clip-rule="evenodd" d="M7.23467 8.07876C6.89175 7.36543 6.54779 6.65168 6.20279 5.93751C6.14342 5.81563 6.09654 5.69064 6.10467 5.55251C6.11592 5.37314 6.21217 5.25501 6.37779 5.19501C6.54904 5.13189 6.69342 5.18626 6.80842 5.31876C6.92467 5.45688 6.92592 5.61314 6.84842 5.76751C6.78279 5.89626 6.67029 5.92251 6.53779 5.89126C6.45029 5.86939 6.41029 5.81001 6.41154 5.72251C6.41279 5.66563 6.43529 5.62063 6.49967 5.61626C6.60217 5.61126 6.59467 5.69876 6.61654 5.76126C6.61904 5.76689 6.63904 5.76376 6.65092 5.76688C6.70404 5.73876 6.68779 5.66189 6.72029 5.63939C6.91092 5.50126 6.64842 5.43813 6.67217 5.32939C6.67342 5.32064 6.62029 5.29689 6.61404 5.32689C6.59529 5.41564 6.52654 5.38064 6.47717 5.39189C6.30342 5.43001 6.21717 5.54689 6.23217 5.72626C6.25217 5.95626 6.37592 6.06938 6.66904 6.12438C6.68904 6.18688 6.55404 6.23063 6.65154 6.30001C6.73529 6.36251 6.61592 6.44376 6.67154 6.50501C6.71092 6.55001 6.83467 6.38813 6.81779 6.57001C6.79029 6.87438 6.91779 7.04813 7.24779 7.13063C7.06592 6.91314 7.03779 6.67813 7.05842 6.43001C7.07154 6.24938 7.11467 6.07751 7.16154 5.90251C7.24154 5.60438 7.25029 5.31876 6.98529 5.09563C7.22654 4.90688 7.22654 4.90688 6.96967 4.75438C7.22654 4.51001 7.27029 4.32001 7.16467 3.90188C7.12467 3.74001 7.07842 3.58063 7.05904 3.41438C7.02967 3.16313 7.11967 2.94126 7.24467 2.71313C6.92967 2.77501 6.79967 2.93064 6.79342 3.21751C6.79217 3.25751 6.83342 3.34376 6.74654 3.32751C6.63029 3.30313 6.66717 3.36313 6.67717 3.41876C6.68404 3.45438 6.72904 3.51313 6.70529 3.51813C6.46904 3.56501 6.71279 3.66001 6.67717 3.73063C6.48904 3.71438 6.35154 3.80251 6.25404 3.96189C6.24217 4.05626 6.20842 4.14876 6.25029 4.24439C6.29279 4.34564 6.35217 4.42126 6.47154 4.42813C6.53217 4.43063 6.62279 4.38001 6.61342 4.50876C6.61342 4.51439 6.62967 4.52876 6.63592 4.52751C6.74592 4.50126 6.69154 4.33439 6.82279 4.31126C6.85717 4.30626 6.80717 4.24439 6.77529 4.23939C6.66654 4.22064 6.75779 4.07001 6.64467 4.05626C6.60654 4.07126 6.62342 4.10939 6.61467 4.13751C6.59217 4.21314 6.54404 4.24751 6.47154 4.20251C6.40217 4.16251 6.40717 4.09876 6.44404 4.03564C6.51717 3.90939 6.73717 3.90938 6.84217 4.03688C6.93342 4.14938 6.94029 4.37438 6.85467 4.48813C6.75217 4.62376 6.48342 4.68501 6.30654 4.60813C6.15092 4.54001 6.09279 4.40876 6.11842 4.24814C6.13279 4.14814 6.15217 4.04626 6.21654 3.96126C6.30967 3.72501 6.40467 3.49001 6.49654 3.25251C6.55279 3.10939 6.57529 2.96314 6.44529 2.84689C6.31092 2.72751 6.15467 2.72188 6.00029 2.80063C5.93092 2.83626 5.87779 2.84001 5.80654 2.80313C5.65279 2.72188 5.49592 2.72563 5.36092 2.84313C5.21904 2.96626 5.25029 3.11876 5.30654 3.26688C5.39154 3.48751 5.48092 3.70438 5.56967 3.92188C5.61904 3.97626 5.62904 4.04688 5.65092 4.11251C5.70342 4.28063 5.72029 4.44251 5.56467 4.56813C5.44342 4.66563 5.18342 4.66188 5.03654 4.56688C4.85154 4.44688 4.83154 4.13313 5.00029 3.99813C5.0517 3.95912 5.1152 3.93943 5.17967 3.94251C5.27529 3.94501 5.35467 3.98188 5.37529 4.08876C5.38842 4.15438 5.36529 4.21001 5.29592 4.21626C5.17217 4.22939 5.18842 4.11813 5.16842 4.03938H5.16592C5.06217 4.10313 5.11779 4.28376 4.95842 4.27313C4.97342 4.33876 5.03467 4.33563 5.05717 4.36501C5.10904 4.43063 5.08092 4.51189 5.24654 4.43689C5.55467 4.29689 5.62529 4.25376 5.52842 3.92376C5.48505 3.85909 5.42543 3.80697 5.35555 3.77263C5.28567 3.73829 5.20798 3.72295 5.13029 3.72813C5.08342 3.65876 5.32717 3.58626 5.11279 3.53126C5.20842 3.38001 5.00154 3.32563 5.00904 3.19501C5.02217 2.94876 4.85279 2.77064 4.55092 2.71376C4.79092 3.06251 4.78342 3.42126 4.67092 3.78876C4.65029 3.85689 4.62904 3.92438 4.61717 3.99376C4.56717 4.28001 4.56029 4.55688 4.83842 4.75126C4.58154 4.90438 4.58154 4.90438 4.81279 5.09751C4.58717 5.34126 4.54592 5.49564 4.62467 5.83501C4.72529 6.26564 4.87592 6.69689 4.56529 7.13251C4.84654 7.04564 4.96842 6.90189 4.99717 6.70251C5.00592 6.63376 4.86904 6.43126 5.12154 6.50939C5.12404 6.50939 5.14217 6.48376 5.13967 6.47876C5.05342 6.36126 5.21154 6.23876 5.12654 6.12251L5.16779 6.11126C5.41654 6.07126 5.54467 5.95313 5.56342 5.74251C5.58342 5.53126 5.54092 5.48313 5.24342 5.38876C5.23154 5.38501 5.21467 5.38501 5.20779 5.37563C5.18654 5.34438 5.14967 5.26564 5.12842 5.33751C5.10154 5.42939 4.98092 5.53814 5.00592 5.55501C5.09342 5.60688 5.07404 5.72939 5.17404 5.77626C5.20467 5.70314 5.20092 5.60126 5.31217 5.61688C5.37904 5.62751 5.38654 5.68251 5.38529 5.73376C5.38404 5.83188 5.32842 5.88251 5.23092 5.89688C5.10217 5.91563 5.00154 5.87938 4.94717 5.75626C4.87654 5.59751 4.88029 5.44313 5.00154 5.30813C5.11967 5.17751 5.26654 5.13001 5.43467 5.19751C5.59904 5.26313 5.69217 5.38376 5.69217 5.56688C5.69217 5.68876 5.66154 5.80438 5.60717 5.91688C5.35092 6.43897 5.09842 6.96293 4.84967 7.48876C4.72154 7.76063 4.56904 8.02126 4.47404 8.30751C4.31717 8.78813 4.48404 9.12876 4.93842 9.27251L4.98404 9.27001C5.07154 9.31063 5.16217 9.28063 5.25217 9.28938C5.46842 9.31438 5.65592 9.26001 5.80029 9.08938C5.86842 9.01001 5.92029 9.02751 5.98717 9.09501C6.12029 9.23126 6.27154 9.32876 6.47654 9.27438C6.59146 9.32118 6.72024 9.32051 6.83467 9.27251C7.21029 9.18563 7.37654 8.97126 7.37154 8.59313C7.37279 8.40876 7.31217 8.24251 7.23467 8.07876ZM6.76342 8.99126C6.59654 9.03438 6.40904 8.96251 6.32904 8.82313C6.27717 8.73313 6.26279 8.63876 6.33842 8.55626C6.40029 8.48813 6.48029 8.50438 6.54904 8.54563C6.63029 8.59501 6.59842 8.68376 6.61154 8.76438C6.69342 8.75689 6.75279 8.69938 6.75154 8.63751C6.75029 8.48813 6.97029 8.51626 6.94842 8.39314C6.93217 8.30126 6.75342 8.31001 6.76029 8.16188C6.76279 8.10251 6.69842 8.05563 6.61654 8.03938C6.63029 8.44626 6.24217 8.19001 6.12029 8.37938L6.06842 8.35688C6.06842 8.15376 6.06029 7.95063 6.06967 7.74751C6.07592 7.61126 6.20092 7.54938 6.37654 7.58313C6.41092 7.59001 6.44592 7.64001 6.47717 7.59689C6.50779 7.55688 6.47342 7.51501 6.45342 7.47438C6.37529 7.32313 6.22779 7.30063 6.04279 7.27001C6.15467 7.17563 6.16029 7.06688 6.13842 6.95376C6.11361 6.8476 6.06147 6.74978 5.98717 6.67001C5.93842 6.61314 5.89529 6.59501 5.82842 6.65501C5.74244 6.73095 5.68686 6.83544 5.67192 6.94917C5.65699 7.0629 5.68371 7.1782 5.74717 7.27376C5.52967 7.29626 5.36342 7.36001 5.30592 7.58876C5.36842 7.58438 5.42342 7.57938 5.47779 7.57813C5.67967 7.57563 5.72904 7.62376 5.72904 7.82313C5.72779 8.00126 5.72904 8.18063 5.72904 8.38188C5.62869 8.32346 5.51567 8.29022 5.39967 8.28501C5.24529 8.28001 5.14842 8.22688 5.20967 8.03626C5.09217 8.05813 5.04529 8.11626 5.02529 8.20376C5.02154 8.22063 5.01904 8.24188 5.02154 8.26001C5.03029 8.35376 4.66154 8.32563 4.93779 8.49001C5.05779 8.56188 5.01342 8.74563 5.17404 8.76188C5.20592 8.74063 5.18467 8.70626 5.18779 8.67751C5.20154 8.54689 5.28342 8.49313 5.40029 8.52313C5.51654 8.55251 5.53154 8.65063 5.50279 8.75563C5.45717 8.91501 5.27904 9.02251 5.09217 9.00126C4.89654 8.97938 4.73842 8.83188 4.72029 8.64626C4.70779 8.52251 4.73779 8.40438 4.78967 8.29251C5.15383 7.51876 5.518 6.74397 5.88217 5.96813C5.95154 5.99438 5.95842 6.05938 5.98092 6.10876C6.31279 6.80688 6.64154 7.50688 6.97279 8.20563C7.03342 8.33438 7.08279 8.46563 7.08029 8.60938C7.07779 8.79751 6.95592 8.94313 6.76342 8.99126Z" fill="#FDC40C"/>
<path fill-rule="evenodd" clip-rule="evenodd" d="M6.83584 18.0363C6.71709 18.0375 6.59855 18.0379 6.48022 18.0375C6.46688 18.0304 6.46251 18.0233 6.46709 18.0163C6.47042 18.0088 6.4748 18.005 6.48022 18.005H6.83584C6.83319 18.0153 6.83319 18.026 6.83584 18.0363Z" fill="#CDC030"/>
<path fill-rule="evenodd" clip-rule="evenodd" d="M6.20114 14.6725C6.14052 14.5488 6.09614 14.425 6.10427 14.2863C6.11427 14.1056 6.21677 13.9869 6.38052 13.9313C6.54864 13.8744 6.69802 13.9225 6.81052 14.0619C6.92427 14.2019 6.92427 14.3563 6.84364 14.51C6.78614 14.6188 6.68927 14.6613 6.56927 14.6388C6.47989 14.6213 6.41552 14.5744 6.41177 14.4731C6.40927 14.4175 6.42489 14.3657 6.48614 14.3556C6.60552 14.3338 6.59114 14.4488 6.62552 14.5156C6.73677 14.4706 6.69177 14.31 6.82989 14.29C6.70489 14.2488 6.72989 14.1131 6.64927 14.05C6.58114 14.14 6.46614 14.1163 6.37864 14.1638C6.24677 14.2344 6.21677 14.3538 6.23677 14.4906C6.26739 14.7106 6.38052 14.8063 6.67239 14.8663C6.59052 14.9888 6.75302 15.1163 6.61052 15.2725C6.79239 15.1994 6.83739 15.2144 6.80864 15.3763C6.76739 15.6063 6.98114 15.83 7.21052 15.8313C6.96052 15.4663 7.04489 15.0813 7.14552 14.7006C7.23177 14.3769 7.26427 14.0756 6.98114 13.825C7.22552 13.6619 7.22552 13.6607 6.98114 13.4788C7.25489 13.2475 7.23614 12.9569 7.15552 12.65C7.05052 12.255 6.95614 11.8569 7.21364 11.4675C6.95489 11.5113 6.76239 11.7163 6.80989 11.9325C6.84927 12.1156 6.76177 12.0888 6.61989 12.0688C6.80489 12.195 6.55677 12.3344 6.68489 12.4525C6.66239 12.4581 6.64927 12.4619 6.63802 12.4631C6.38177 12.4975 6.24927 12.6175 6.23302 12.8431C6.21677 13.0663 6.33239 13.175 6.55177 13.1856C6.56302 13.1856 6.57677 13.1881 6.58552 13.1963C6.61364 13.2131 6.60802 13.3125 6.66677 13.2438C6.72489 13.1756 6.75802 13.085 6.80052 13.0038C6.68677 12.9838 6.73427 12.8269 6.61489 12.7925C6.60114 12.8644 6.60552 12.9594 6.50239 12.9581C6.43989 12.9581 6.41364 12.9119 6.41114 12.855C6.40739 12.7563 6.46114 12.7006 6.55302 12.6781C6.67239 12.6475 6.77302 12.6806 6.83427 12.7869C6.92427 12.9369 6.92864 13.0925 6.82114 13.2369C6.71489 13.3788 6.56989 13.4363 6.39677 13.3856C6.22989 13.335 6.12302 13.2225 6.10489 13.0419C6.09114 12.8981 6.13739 12.7669 6.20052 12.6381C6.53239 11.9531 6.86114 11.2663 7.19239 10.5813C7.25052 10.46 7.31114 10.34 7.34239 10.2069C7.45427 9.74752 7.27927 9.38065 6.85489 9.30127C6.84739 9.30002 6.84239 9.28252 6.83614 9.27315C6.73677 9.18752 6.61177 9.23815 6.50052 9.21252C6.32364 9.2819 6.12739 9.31502 5.99864 9.4719C5.91864 9.56752 5.86177 9.54752 5.78614 9.46252C5.65114 9.31377 5.47302 9.25002 5.27364 9.2519C5.17802 9.25565 5.08364 9.20627 4.98552 9.23627C4.96696 9.24373 4.95107 9.25657 4.93989 9.27315C4.92302 9.3294 4.86677 9.31752 4.82864 9.3344C4.54552 9.4569 4.40802 9.6744 4.42489 9.98502C4.43489 10.1819 4.50052 10.3594 4.58552 10.5331C4.92552 11.2356 5.26114 11.9406 5.60239 12.6419C5.66302 12.7669 5.69802 12.8931 5.69239 13.0294C5.68773 13.123 5.64956 13.2118 5.58484 13.2797C5.52013 13.3475 5.43319 13.3897 5.33989 13.3988C5.15927 13.4188 4.97364 13.3056 4.92364 13.1294C4.88302 12.9863 4.89677 12.8463 5.00677 12.735C5.08739 12.6544 5.18864 12.65 5.29239 12.6925C5.37052 12.7244 5.39177 12.7881 5.38677 12.8638C5.38302 12.9094 5.36427 12.9538 5.30864 12.9581C5.22114 12.9663 5.20864 12.8963 5.18739 12.8363C5.18239 12.8169 5.17114 12.8031 5.13302 12.8169C5.08989 12.8794 5.08739 12.9875 5.00302 13.0106C5.07489 13.2975 5.25302 13.2319 5.42864 13.145C5.56552 13.0769 5.58052 12.9481 5.56427 12.8125C5.53927 12.6031 5.42239 12.5088 5.12302 12.4463C5.22677 12.3325 5.05364 12.2031 5.14114 12.0888C5.14489 12.0813 5.13177 12.0531 5.10364 12.065C4.92614 12.1369 4.99114 12.0044 4.99364 11.93C4.99927 11.6706 4.80552 11.4625 4.57927 11.4863C4.70427 11.6338 4.75364 11.8075 4.75239 11.9988C4.75114 12.2463 4.68989 12.4813 4.63114 12.7163C4.55802 13.0056 4.57177 13.275 4.82114 13.4838C4.75739 13.5482 4.64552 13.5606 4.64302 13.6563C4.64052 13.7556 4.77052 13.7613 4.81864 13.8381C4.58302 14.025 4.56614 14.2738 4.61614 14.5381C4.63802 14.6519 4.67989 14.76 4.70114 14.8738C4.76302 15.2075 4.82239 15.5431 4.56989 15.8406C4.6765 15.8371 4.77822 15.7951 4.85624 15.7224C4.93426 15.6497 4.9833 15.5511 4.99427 15.445C5.00489 15.3644 4.89489 15.1913 5.12302 15.2363C5.12739 15.2375 5.14239 15.2113 5.14114 15.2088C5.04739 15.0931 5.24177 14.9713 5.11552 14.86C5.14114 14.8531 5.15364 14.8494 5.16614 14.8481C5.41614 14.8125 5.54489 14.6963 5.56552 14.4844C5.58552 14.2731 5.54052 14.2213 5.24802 14.1257C5.23677 14.1219 5.22177 14.1207 5.21427 14.1125C5.18864 14.0888 5.16614 13.9963 5.13427 14.0713C5.09864 14.1575 5.02302 14.2188 5.00677 14.3125C5.11927 14.3275 5.07364 14.4694 5.16177 14.5075C5.21802 14.4569 5.20052 14.3219 5.32427 14.3588C5.39177 14.3788 5.39302 14.4431 5.38489 14.5025C5.36614 14.6163 5.27489 14.6388 5.18427 14.6444C5.14221 14.648 5.09998 14.6398 5.06241 14.6205C5.02483 14.6013 4.99342 14.5719 4.97177 14.5356C4.88302 14.385 4.87177 14.23 4.97552 14.0825C5.07677 13.9375 5.22239 13.8769 5.39552 13.925C5.56364 13.9713 5.67677 14.0775 5.69114 14.2606C5.70364 14.4044 5.66927 14.5375 5.60489 14.6675C5.27438 15.3466 4.94626 16.0268 4.62052 16.7081C4.56302 16.8275 4.50302 16.9506 4.46552 17.0781C4.32739 17.5456 4.50802 17.8906 4.94052 18.0056C4.95458 18.0217 4.97128 18.0352 4.98989 18.0456C5.08177 18.0694 5.17677 18.0556 5.26989 18.0588C5.53552 18.0613 5.73989 17.9413 5.90114 17.7256C6.06489 17.9475 6.26614 18.0631 6.52614 18.0588C6.63114 18.0488 6.74364 18.0881 6.83552 18.005C7.17677 17.9438 7.36489 17.7244 7.37364 17.3869C7.37864 17.1825 7.31927 16.9956 7.23177 16.8163C6.88552 16.1013 6.54364 15.3863 6.19864 14.6725M4.77614 10.2456C4.60427 9.8619 4.81427 9.5394 5.18489 9.5769C5.31489 9.58815 5.41614 9.65377 5.47802 9.76752C5.52864 9.85877 5.54052 9.96252 5.44739 10.0275C5.35989 10.0881 5.26364 10.075 5.20302 9.96877C5.17927 9.9169 5.21614 9.85502 5.17552 9.80565C5.00927 9.85502 5.03739 10.0925 4.85802 10.1325C4.82239 10.14 4.83427 10.1963 4.86552 10.2069C4.98552 10.2481 5.01739 10.3488 5.06114 10.4525C5.08927 10.5194 5.16614 10.5444 5.18364 10.4375C5.20239 10.32 5.27802 10.2956 5.37427 10.29C5.48864 10.2819 5.60052 10.2675 5.72489 10.1863C5.72489 10.3788 5.72239 10.545 5.72489 10.7106C5.72864 10.955 5.69427 10.9925 5.45677 10.9975C5.40739 10.9988 5.35864 11.0025 5.30364 11.005C5.37427 11.2113 5.52489 11.2856 5.73864 11.2919C5.56927 11.5281 5.66489 11.7219 5.81427 11.9044C5.85927 11.9613 5.90427 11.9813 5.97239 11.9181C6.14739 11.755 6.18864 11.52 6.05552 11.295C6.26177 11.2819 6.43302 11.2206 6.48739 10.9844C6.42802 10.99 6.37989 10.9963 6.33114 10.9975C6.12614 11.005 6.06427 10.9444 6.06427 10.7438C6.06427 10.5719 6.06427 10.3988 6.08927 10.21C6.23239 10.3819 6.61364 10.1244 6.60864 10.5313C6.68802 10.525 6.74614 10.4794 6.75864 10.4075C6.77364 10.3163 6.81427 10.2644 6.89802 10.2325C6.93052 10.2194 6.97989 10.1644 6.94427 10.15C6.78364 10.0838 6.76677 9.8844 6.61489 9.79252C6.60864 9.83127 6.60177 9.84815 6.60302 9.8644C6.60427 9.94565 6.59927 10.0213 6.50239 10.0463C6.43739 10.0638 6.37364 10.0694 6.32677 10.0113C6.26614 9.9394 6.27114 9.85315 6.31177 9.77565C6.39802 9.61815 6.53927 9.55252 6.71552 9.5794C6.89177 9.60627 7.02739 9.6919 7.06677 9.8819C7.09254 10.0024 7.07804 10.128 7.02552 10.2394C6.66302 11.0148 6.29864 11.7906 5.93239 12.5669C5.92614 12.5819 5.90614 12.5919 5.88302 12.6119C5.51114 11.8213 5.13364 11.0375 4.77614 10.2456ZM5.50552 13.66C5.65802 13.5794 5.79864 13.51 5.89864 13.3569C6.00614 13.5063 6.13177 13.5869 6.29927 13.6544C6.14864 13.7206 6.02552 13.7844 5.94177 13.8981C5.89802 13.9581 5.86989 13.9156 5.84177 13.8813C5.75927 13.7781 5.64677 13.7194 5.50552 13.66ZM6.75552 17.7269C6.57614 17.7625 6.42177 17.7169 6.32239 17.5538C6.26802 17.4656 6.25927 17.3681 6.33614 17.2888C6.39302 17.2306 6.46989 17.245 6.53427 17.2756C6.62864 17.3213 6.58989 17.4206 6.60989 17.4994C6.69489 17.49 6.72989 17.4313 6.75489 17.3638C6.76864 17.3238 6.76802 17.2725 6.81677 17.2525C6.99739 17.1794 6.99989 17.1075 6.81427 17.0388C6.75364 17.0175 6.78114 16.9631 6.76927 16.9238C6.74364 16.8456 6.69489 16.7944 6.59864 16.7669C6.63864 16.9713 6.53052 17.0263 6.36364 17.0263C6.27239 17.0263 6.18739 17.05 6.06364 17.1331C6.06364 16.8931 6.05927 16.6831 6.06489 16.4763C6.06739 16.3638 6.15114 16.325 6.24677 16.3144C6.32114 16.3069 6.39677 16.3131 6.48177 16.3131C6.43739 16.0863 6.26177 16.0313 6.06052 16.015C6.18302 15.7888 6.15427 15.5938 5.98864 15.4094C5.91989 15.3325 5.87114 15.3388 5.80302 15.4119C5.64677 15.5838 5.61489 15.7863 5.72489 16.015C5.55802 16.0281 5.40739 16.07 5.32927 16.2363C5.29239 16.3144 5.29489 16.3219 5.38114 16.3181C5.71302 16.3069 5.72989 16.325 5.72114 16.6569C5.71896 16.7915 5.71584 16.9261 5.71177 17.0606C5.71177 17.0725 5.70552 17.085 5.69864 17.11C5.59927 17.0419 5.48677 17.0269 5.37177 17.0188C5.27614 17.0113 5.20239 16.9856 5.18239 16.87C5.16364 16.76 5.08489 16.7913 5.05864 16.8569C5.01739 16.9619 4.98177 17.0588 4.86364 17.1025C4.83052 17.1138 4.82239 17.1688 4.85614 17.1769C5.03927 17.2138 5.00614 17.4544 5.17364 17.5025C5.21364 17.4531 5.17739 17.3913 5.20114 17.3394C5.26177 17.2344 5.35802 17.2194 5.44489 17.2813C5.53739 17.3456 5.52489 17.4481 5.47802 17.5413C5.40864 17.6832 5.22677 17.7613 5.04989 17.7281C4.96077 17.7137 4.87917 17.6695 4.81834 17.6028C4.75752 17.5361 4.72106 17.4507 4.71489 17.3606C4.70917 17.2448 4.73396 17.1295 4.78677 17.0263C5.14927 16.25 5.51427 15.4763 5.88052 14.6988C5.94864 14.7369 5.95927 14.805 5.98427 14.8606C6.31343 15.5536 6.64198 16.2475 6.96989 16.9425C7.03052 17.0713 7.07864 17.2025 7.07614 17.3463C7.07639 17.4374 7.04431 17.5257 6.9856 17.5954C6.92689 17.6651 6.84536 17.7117 6.75552 17.7269Z" fill="#FDC40C"/>
<path fill-rule="evenodd" clip-rule="evenodd" d="M5.30473 9.27814C5.30624 9.28599 5.30624 9.29405 5.30473 9.30189C5.19723 9.30064 5.08598 9.33752 4.98535 9.27002L5.30473 9.27814Z" fill="#D2C02C"/>
<path fill-rule="evenodd" clip-rule="evenodd" d="M5.30473 18.0087C5.30624 18.0166 5.30624 18.0246 5.30473 18.0325C5.19723 18.0312 5.08598 18.0694 4.98535 18.0006C5.09202 18.0044 5.19848 18.0071 5.30473 18.0087Z" fill="#D3C02B"/>
<path fill-rule="evenodd" clip-rule="evenodd" d="M5.17809 9.8056C5.25746 9.84685 5.18809 9.9156 5.20559 9.96873C5.15371 9.92185 5.18059 9.86123 5.17809 9.8056ZM5.20559 17.3419C5.20559 17.3973 5.20517 17.4521 5.20434 17.5062C5.20434 17.51 5.19621 17.515 5.19246 17.515C5.18746 17.5137 5.18246 17.5087 5.17809 17.505C5.18059 17.4494 5.15246 17.3887 5.20559 17.3419Z" fill="#83BA67"/>
<path fill-rule="evenodd" clip-rule="evenodd" d="M19.7145 12.4375C19.7183 10.6837 21.132 9.28125 22.8983 9.28125C24.6302 9.28437 26.042 10.7006 26.042 12.4375C26.0397 13.2756 25.7054 14.0787 25.1124 14.6709C24.5193 15.2632 23.7158 15.5963 22.8777 15.5975C21.1377 15.5963 19.7152 14.1744 19.7164 12.4344M19.9183 18.8375C19.4908 18.7825 19.0902 18.6356 18.6958 18.47C18.422 18.3512 18.1445 18.24 17.8658 18.1206C17.9395 18.035 18.0614 18.0644 18.152 17.9787C17.9164 17.9025 17.6614 17.92 17.4589 17.7625C17.5564 17.6694 17.7027 17.7037 17.797 17.61C17.5758 17.5244 17.3283 17.5763 17.1139 17.42C17.292 17.3475 17.4751 17.3787 17.6358 17.2712C17.3326 17.1294 16.952 17.235 16.692 16.9244H17.3864C17.3893 16.9148 17.3931 16.9054 17.3977 16.8962C17.2856 16.8437 17.1745 16.7923 17.0645 16.7419C16.7664 16.6087 16.4795 16.4587 16.2458 16.2287C16.1702 16.1537 16.047 16.06 16.1214 15.9587C16.1702 15.8937 16.2927 15.9937 16.377 16.0381C16.5189 16.1175 16.6508 16.2194 16.8295 16.2144C16.8502 16.1294 16.7795 16.1175 16.7427 16.0869C16.3239 15.7356 15.9252 15.3675 15.6177 14.9119C15.5758 14.8481 15.4995 14.7775 15.5908 14.7069C15.6764 14.6419 15.7602 14.675 15.8358 14.7475C16.0514 14.9631 16.2558 15.1937 16.4933 15.385C16.5624 15.4481 16.6469 15.4921 16.7383 15.5125C16.6964 15.4579 16.6533 15.4044 16.6089 15.3519C16.2883 14.9719 15.9908 14.5769 15.7664 14.1325C15.7164 14.0344 15.622 13.9162 15.7633 13.8294C15.8989 13.7437 16.0089 13.825 16.0908 13.9369C16.2783 14.1925 16.462 14.4544 16.6495 14.7094C16.6939 14.7719 16.7383 14.8344 16.8445 14.8862C16.707 14.5631 16.5527 14.2881 16.4545 13.99C16.3789 13.755 16.3183 13.5181 16.317 13.2731C16.3149 13.2044 16.3189 13.1369 16.3289 13.0706C16.3445 12.9869 16.3839 12.9244 16.4833 12.9181C16.582 12.9137 16.6027 12.9775 16.622 13.0537C16.7058 13.36 16.7899 13.6658 16.8745 13.9712C16.9214 14.1406 16.9864 14.3012 17.1014 14.4844C17.087 14.2144 17.0102 13.9919 17.0189 13.7606C17.0245 13.6694 17.0245 13.5775 17.0364 13.4875C17.0383 13.456 17.052 13.4264 17.0749 13.4046C17.0977 13.3828 17.128 13.3704 17.1595 13.37C17.2277 13.3656 17.2677 13.4069 17.2852 13.4775C17.3308 13.6537 17.3677 13.8337 17.4277 14.0062C18.1814 16.1925 19.7133 17.4706 21.9764 17.8806C22.2276 17.9262 22.4852 17.9369 22.7389 17.9675C22.7527 17.9994 22.7333 18.0262 22.7202 18.0506C22.6702 18.1556 22.6427 18.2925 22.5589 18.3531C22.4552 18.4294 22.3677 18.2812 22.2689 18.2419C21.9345 18.1125 21.5845 18.12 21.237 18.1044C20.8389 18.0869 20.497 17.9631 20.2214 17.6719C20.128 17.5752 20.0315 17.4817 19.932 17.3912C19.7745 17.2431 19.6052 17.1231 19.3864 17.0662C18.997 16.965 18.7127 16.71 18.4608 16.4094C18.1939 16.0906 17.9695 15.7381 17.6583 15.4575C17.5858 15.3915 17.5107 15.3283 17.4333 15.2681C17.367 15.2162 17.302 15.1462 17.2433 15.2869C17.2033 15.3856 17.1445 15.2869 17.092 15.2831C17.0445 15.28 16.9927 15.2587 16.9527 15.2987C16.9027 15.3544 16.972 15.3844 16.9939 15.4206C17.0627 15.5325 17.1358 15.6456 17.1827 15.7731C17.2283 15.9012 17.2383 15.99 17.057 15.9631C17.0177 15.9575 16.977 15.9675 16.9152 15.9706C17.027 16.1756 17.1952 16.3069 17.3533 16.46C17.2795 16.51 17.1877 16.46 17.1139 16.5294C17.2377 16.6512 17.3802 16.7475 17.5395 16.8125C17.5702 16.8256 17.5964 16.84 17.6277 16.8431C17.8195 16.8625 17.647 17.0369 17.7402 17.1031C17.8008 17.1469 17.9852 17.1344 17.8352 17.2962C17.7927 17.3412 17.8158 17.4137 17.8902 17.4406C17.9358 17.4562 17.9827 17.4731 18.0308 17.4844C18.1458 17.5169 18.2264 17.5519 18.0733 17.655C17.992 17.7069 18.0258 17.7462 18.0952 17.7825C18.2452 17.8662 18.4108 17.9044 18.6108 17.9462C18.5064 18.0162 18.4295 18.0681 18.327 18.1344C18.8502 18.4419 19.4064 18.6169 19.9583 18.7975C19.9639 18.8344 19.9602 18.8525 19.9183 18.8375ZM22.5189 20.3481C22.4126 20.3669 22.3595 20.43 22.292 20.4675C22.2033 20.5206 22.1183 20.5844 22.012 20.5956C21.962 20.6019 21.8927 20.6319 21.8614 20.575C21.8395 20.5325 21.8795 20.4837 21.907 20.4425C22.0576 20.2056 22.2983 20.1237 22.5564 20.0812C22.8827 20.0275 23.2164 20.0444 23.5439 20.0419C23.8139 20.0387 24.0852 20.0375 24.3408 19.9462C24.5002 19.8888 24.7202 19.8787 24.7002 19.615C24.6989 19.5781 24.7395 19.5756 24.7658 19.5631C24.8052 19.5475 24.867 19.5306 24.8733 19.5025C24.9308 19.2712 25.1195 19.3225 25.2714 19.32C25.7733 19.3119 26.2683 19.4137 26.7695 19.43C26.877 19.4337 26.8677 19.4994 26.8502 19.5694C26.7945 19.8006 26.477 19.92 26.2502 19.7931C26.2014 19.7681 26.1602 19.7337 26.0977 19.6912L26.0558 19.9288C26.0189 20.1163 25.9058 20.1725 25.737 20.0869C25.5077 19.9694 25.5058 19.9694 25.392 20.1881C25.3576 20.2531 25.3233 20.3269 25.2414 20.3337C25.1339 20.3431 25.1152 20.2412 25.0589 20.1462C25.0014 20.2219 24.9558 20.2894 24.9014 20.3512C24.8026 20.4619 24.6976 20.5344 24.5708 20.3812C24.4977 20.2937 24.4527 20.3231 24.3895 20.4075C24.2414 20.6125 24.1495 20.6062 24.0345 20.3931C23.9889 20.3056 23.9539 20.3087 23.9177 20.3944C23.8845 20.4681 23.8502 20.5387 23.7789 20.5837C23.7152 20.6244 23.6464 20.6512 23.572 20.6219C23.4852 20.5837 23.5252 20.5069 23.527 20.4437C23.527 20.4044 23.5583 20.3612 23.5039 20.3144C23.4095 20.3744 23.3489 20.4731 23.2677 20.5512C23.2045 20.6094 23.132 20.6825 23.0439 20.6425C22.9583 20.6069 23.0158 20.5144 23.0127 20.445C23.0095 20.4044 23.0233 20.3612 22.9826 20.3094C22.9095 20.3894 22.8433 20.4731 22.7689 20.5481C22.7139 20.605 22.6427 20.6694 22.5614 20.6369C22.4789 20.6012 22.5201 20.5087 22.5189 20.4375C22.517 20.4125 22.5189 20.3881 22.5189 20.3481Z" fill="#FDC40C"/>
<path fill-rule="evenodd" clip-rule="evenodd" d="M19.4312 8.99622C19.7374 9.15122 20.0424 9.30247 20.308 9.51372C20.4568 9.63184 20.4568 9.78372 20.3287 9.90497C20.2024 10.0262 20.0587 10.0156 19.9393 9.85934C19.7374 9.59372 19.5893 9.29372 19.4312 8.99622Z" fill="#FCC40D"/>
<path fill-rule="evenodd" clip-rule="evenodd" d="M18.1196 11.4631C18.4353 11.4506 18.7509 11.4337 19.0634 11.4274C19.1809 11.4256 19.2984 11.4568 19.3453 11.5899C19.3638 11.6387 19.368 11.6918 19.3575 11.7429C19.347 11.7941 19.3222 11.8412 19.2859 11.8787C19.1928 11.9774 19.0734 11.9556 18.9621 11.9112C18.6634 11.7983 18.3802 11.6477 18.1196 11.4631Z" fill="#FBC40D"/>
<path fill-rule="evenodd" clip-rule="evenodd" d="M26.3004 9.00814C26.1667 9.3165 25.9978 9.60843 25.7973 9.87814C25.6848 10.0219 25.5416 10.0219 25.4191 9.90001C25.2979 9.77876 25.2979 9.63501 25.4373 9.52126C25.6979 9.30876 25.9998 9.16126 26.3004 9.00814ZM23.8191 7.67876C23.8766 8.01439 23.9029 8.34564 23.8829 8.67939C23.8716 8.85564 23.7454 8.94939 23.5841 8.91876C23.411 8.88751 23.3279 8.75626 23.386 8.57876C23.4916 8.26126 23.6573 7.97439 23.8191 7.67876ZM21.9316 7.69126C22.1098 7.99064 22.2816 8.29001 22.3766 8.62439C22.4166 8.78001 22.316 8.89751 22.1554 8.92064C21.9929 8.94501 21.8773 8.85001 21.8679 8.66689C21.8526 8.34032 21.874 8.01307 21.9316 7.69126ZM21.0129 7.98751C21.2566 8.23501 21.4948 8.48689 21.6629 8.79064C21.7398 8.93001 21.6691 9.06814 21.5179 9.13001C21.3666 9.19001 21.2329 9.12501 21.181 8.95064C21.0902 8.63665 21.0338 8.31371 21.0129 7.98751ZM18.8379 9.74064C19.1666 9.82939 19.4941 9.91876 19.7966 10.0769C19.9529 10.1606 19.981 10.3056 19.8854 10.4475C19.791 10.5863 19.6473 10.6138 19.5098 10.4944C19.2554 10.2738 19.046 10.0131 18.8379 9.74064ZM26.9691 9.71126C26.7223 10.0038 26.5135 10.2569 26.2685 10.4794C26.1185 10.615 25.966 10.5931 25.866 10.4388C25.7716 10.29 25.8085 10.1513 25.9854 10.0644C26.2835 9.91751 26.6004 9.81939 26.9691 9.71126ZM22.8766 7.51251C22.9829 7.88001 23.0866 8.20314 23.1285 8.54251C23.151 8.73501 23.0541 8.84876 22.881 8.84876C22.7054 8.85001 22.6054 8.73751 22.6285 8.54751C22.6698 8.20814 22.776 7.88439 22.8766 7.51251ZM24.7673 7.93751C24.7173 8.25626 24.6748 8.57689 24.6148 8.89126C24.5723 9.11876 24.4291 9.19439 24.2473 9.11376C24.0798 9.04001 24.0404 8.90251 24.1491 8.71939C24.3173 8.43939 24.5266 8.18564 24.7673 7.93751Z" fill="#FCC40D"/>
<path fill-rule="evenodd" clip-rule="evenodd" d="M18.3916 10.5862C18.7325 10.5906 19.0715 10.6372 19.401 10.725C19.5666 10.7706 19.6185 10.9031 19.5604 11.0569C19.4972 11.2206 19.366 11.28 19.2085 11.1956C18.9104 11.0306 18.6535 10.8069 18.3916 10.5862ZM27.3647 10.5844C27.1085 10.8112 26.8429 11.0269 26.5479 11.1956C26.3916 11.2806 26.2591 11.2194 26.196 11.055C26.136 10.9031 26.1885 10.7731 26.356 10.725C26.6854 10.6378 27.0241 10.5906 27.3647 10.5844ZM27.6441 11.5075C27.3622 11.6587 27.076 11.8037 26.7747 11.9194C26.6685 11.9587 26.5535 11.9731 26.4685 11.8769C26.432 11.8395 26.4069 11.7924 26.3962 11.7413C26.3854 11.6902 26.3895 11.637 26.4079 11.5881C26.4522 11.4631 26.5597 11.4275 26.6716 11.4287C26.9922 11.4337 27.3116 11.4506 27.6329 11.4619C27.6397 11.4775 27.641 11.4912 27.6441 11.5075ZM27.7441 12.4362C27.4166 12.55 27.0866 12.6525 26.7422 12.695C26.5816 12.7156 26.4741 12.605 26.4697 12.4462C26.4647 12.2837 26.5622 12.1781 26.7291 12.1887C27.0785 12.2106 27.4054 12.3387 27.7441 12.4362Z" fill="#FBC40D"/>
<path fill-rule="evenodd" clip-rule="evenodd" d="M20.1813 16.5081C20.2515 16.1827 20.3559 15.8655 20.4925 15.5619C20.5825 15.3712 20.7225 15.3275 20.8756 15.4244C21.035 15.5212 21.0475 15.6762 20.9075 15.84C20.86 15.8962 20.8062 15.9475 20.7525 15.9962C20.5631 16.1694 20.3731 16.3381 20.1813 16.5081ZM18.7812 15.175C19.0219 14.8831 19.2381 14.6412 19.4688 14.4162C19.5531 14.3337 19.6519 14.2837 19.7669 14.3306C19.87 14.3744 19.9313 14.465 19.9363 14.5737C19.9456 14.7112 19.8519 14.785 19.7413 14.8319C19.445 14.9619 19.1369 15.0581 18.7812 15.175ZM26.9375 15.1312C26.6128 15.0642 26.2963 14.9619 25.9938 14.8262C25.7969 14.7337 25.7569 14.5612 25.8831 14.41C25.9837 14.2856 26.1281 14.2806 26.2663 14.4056C26.3594 14.4856 26.4412 14.575 26.5231 14.6669C26.6637 14.82 26.7994 14.9762 26.9375 15.1312ZM27.3781 14.3031C27.0545 14.2832 26.7326 14.2404 26.415 14.175C26.3 14.1481 26.2025 14.0981 26.1775 13.9744C26.1673 13.923 26.172 13.8697 26.191 13.8209C26.2101 13.772 26.2427 13.7297 26.285 13.6987C26.3919 13.6137 26.5062 13.65 26.6069 13.7162C26.8825 13.8862 27.13 14.09 27.3781 14.3031ZM26.3125 15.875C26.0175 15.7256 25.7287 15.5806 25.47 15.385C25.3025 15.2606 25.2869 15.1131 25.4144 14.9819C25.5206 14.8731 25.6694 14.8612 25.7675 14.9744C26 15.2425 26.15 15.5619 26.3125 15.875Z" fill="#FCC40D"/>
<path fill-rule="evenodd" clip-rule="evenodd" d="M18.0156 12.4162C18.3025 12.3418 18.59 12.265 18.88 12.2C19.1225 12.1462 19.2525 12.2162 19.2812 12.3918C19.3094 12.575 19.1975 12.7175 19.0125 12.695C18.67 12.6543 18.3406 12.5499 18.0156 12.4162Z" fill="#FBC40D"/>
<path fill-rule="evenodd" clip-rule="evenodd" d="M25.6159 16.5337C25.3493 16.3183 25.0948 16.0883 24.8534 15.845C24.7753 15.7631 24.719 15.665 24.7721 15.5481C24.7919 15.4997 24.825 15.458 24.8676 15.4278C24.9103 15.3976 24.9606 15.3801 25.0128 15.3775C25.144 15.3687 25.2146 15.4543 25.2621 15.5575C25.4015 15.86 25.4996 16.18 25.6159 16.5337ZM19.4628 15.8562C19.5984 15.5581 19.7496 15.28 19.9371 15.0281C20.059 14.8656 20.2184 14.8537 20.3409 14.9794C20.4453 15.0869 20.4684 15.2162 20.3565 15.3187C20.0965 15.5562 19.7778 15.7018 19.4628 15.8562ZM21.9503 17.2212C21.8868 16.8994 21.8598 16.5716 21.8696 16.2437C21.879 16.0481 21.9659 15.9562 22.1303 15.9625C22.3259 15.9694 22.4271 16.105 22.3715 16.3012C22.347 16.382 22.3154 16.4604 22.2771 16.5356C22.1696 16.7637 22.0571 16.9925 21.9503 17.2212ZM23.8378 17.2668C23.6665 16.9306 23.5159 16.6456 23.4009 16.3437C23.3603 16.2356 23.3446 16.1262 23.4365 16.0381C23.4753 15.9984 23.5252 15.9714 23.5796 15.9605C23.6341 15.9497 23.6905 15.9556 23.7415 15.9775C23.8596 16.0219 23.8871 16.1337 23.889 16.2494C23.8959 16.5719 23.8709 16.8912 23.8378 17.2668ZM18.379 14.3044C18.6228 14.0919 18.8684 13.8912 19.1359 13.7219C19.2384 13.6569 19.3471 13.6143 19.4596 13.6906C19.5528 13.7543 19.599 13.8531 19.5809 13.9619C19.5603 14.1025 19.4484 14.1512 19.3184 14.1806C19.0103 14.2475 18.6959 14.2762 18.379 14.3044ZM20.1565 8.42185C20.1615 8.41873 20.1684 8.41248 20.1709 8.41248C20.4928 8.60185 20.769 8.85123 20.9759 9.15998C21.0609 9.2831 20.969 9.40498 20.8415 9.47248C20.699 9.54748 20.5896 9.49623 20.5171 9.3681C20.4009 9.15998 20.3378 8.92998 20.2559 8.70685C20.2215 8.61123 20.1909 8.51685 20.1565 8.42185ZM25.5628 8.41685C25.4834 8.74998 25.3903 9.07748 25.2309 9.37685C25.1528 9.52435 25.0096 9.54373 24.8734 9.44998C24.7359 9.35435 24.7071 9.20935 24.8228 9.07185C25.0359 8.82248 25.2946 8.61873 25.5628 8.41685ZM21.0171 16.8106C21.0415 16.53 21.0809 16.2519 21.1421 15.9806C21.1896 15.7681 21.3253 15.69 21.5003 15.7594C21.6721 15.8244 21.7203 15.9825 21.604 16.1643C21.4322 16.437 21.2386 16.6953 21.0253 16.9368C20.9978 16.8962 21.0034 16.8537 21.0171 16.8106ZM27.694 13.3944C27.3491 13.4417 27.0007 13.4587 26.6528 13.445C26.4584 13.4344 26.3671 13.315 26.404 13.1456C26.4384 12.9687 26.5603 12.8931 26.7415 12.9525C27.0628 13.0569 27.3571 13.2206 27.694 13.3944ZM18.0615 13.3975C18.394 13.2212 18.6828 13.0719 18.9865 12.9594C19.0996 12.9175 19.2065 12.91 19.2878 13.0081C19.3237 13.0458 19.3478 13.093 19.3574 13.1442C19.3669 13.1953 19.3614 13.2481 19.3415 13.2962C19.294 13.42 19.1909 13.4462 19.0746 13.4481C18.7362 13.4523 18.3978 13.4354 18.0615 13.3975ZM24.7309 16.9375C24.5215 16.7006 24.3371 16.4437 24.1615 16.18C24.0959 16.0825 24.0515 15.9706 24.1284 15.8581C24.1593 15.812 24.2034 15.7764 24.255 15.7559C24.3065 15.7354 24.363 15.7309 24.4171 15.7431C24.5546 15.7712 24.5971 15.8831 24.6171 15.9981C24.6628 16.2681 24.6996 16.5393 24.7384 16.8106C24.7534 16.8537 24.7596 16.8962 24.7309 16.9375ZM22.879 17.3637C22.7734 17 22.6821 16.69 22.6315 16.3687C22.6128 16.2587 22.614 16.145 22.7246 16.0756C22.7688 16.0477 22.8196 16.0323 22.8718 16.0311C22.924 16.0298 22.9755 16.0429 23.0209 16.0687C23.1434 16.1362 23.1421 16.2575 23.124 16.375C23.074 16.6962 22.9784 17.0062 22.879 17.3637Z" fill="#FCC40D"/>
<path fill-rule="evenodd" clip-rule="evenodd" d="M22.478 19.8319C22.578 19.8012 22.6862 19.8444 22.7843 19.795C22.9968 19.8012 23.2149 19.7669 23.4243 19.8406C23.1093 19.8676 22.7925 19.8647 22.478 19.8319Z" fill="#E1C221"/>
<path fill-rule="evenodd" clip-rule="evenodd" d="M29.0065 16.0762C29.4346 15.7256 29.8315 15.3475 30.1421 14.8856C30.179 14.83 30.2333 14.7731 30.1577 14.7119C30.0952 14.6562 30.0202 14.6644 29.9527 14.7056C29.9171 14.7275 29.8927 14.7637 29.8615 14.7956C29.6783 14.9744 29.499 15.1587 29.3096 15.3312C29.2083 15.425 29.1008 15.5162 28.9208 15.5875C28.9858 15.5144 29.0121 15.4812 29.0427 15.4512C29.4095 15.0489 29.7258 14.6034 29.9846 14.1244C30.0383 14.0287 30.1071 13.9137 29.9833 13.8312C29.8615 13.7506 29.749 13.8162 29.6621 13.9169C29.639 13.945 29.6196 13.9781 29.5971 14.0069C29.4096 14.2531 29.2577 14.5306 29.0483 14.7619C29.009 14.8062 28.9808 14.8794 28.894 14.8712C28.9808 14.6912 29.0671 14.52 29.1458 14.3462C29.3121 13.9687 29.4402 13.5806 29.4271 13.1625C29.4215 13.0506 29.4096 12.9256 29.2608 12.9181C29.1252 12.9131 29.1271 13.0319 29.0977 13.1231C28.9665 13.5494 28.9121 13.9969 28.694 14.3937C28.6515 14.4081 28.6402 14.3912 28.6527 14.3531C28.6802 14.0744 28.7677 13.8012 28.704 13.5156C28.6865 13.4344 28.6627 13.3694 28.5708 13.3731C28.489 13.3781 28.4533 13.4319 28.434 13.5162C27.9296 15.8106 26.1015 17.5487 23.7908 17.8644C23.2777 17.935 22.8983 18.1062 22.5952 18.5144C22.3827 18.7975 22.0933 18.9925 21.7496 19.1025C21.589 19.1562 21.4215 19.1981 21.2765 19.295C21.1758 19.3606 21.0871 19.4325 21.0921 19.5681C20.9558 19.6281 20.8515 19.7112 20.8446 19.8744C20.8427 19.9125 20.8471 19.9862 20.8933 19.9669C20.9846 19.9275 21.0821 19.9494 21.1546 19.9331C21.5952 19.8475 22.0371 19.8606 22.4765 19.8325C22.5808 19.8325 22.6908 19.8925 22.7827 19.7956C22.5883 19.7644 22.3965 19.7119 22.1965 19.7531C22.1521 19.7631 22.0871 19.7631 22.0652 19.7144C22.0433 19.6687 22.0996 19.645 22.1183 19.6081C22.1421 19.5656 22.2483 19.5225 22.114 19.4769C22.084 19.4662 22.1308 19.4331 22.1508 19.4119C22.1802 19.3806 22.239 19.3725 22.2421 19.2981C22.0652 19.3306 21.894 19.3619 21.7215 19.3906C21.6952 19.4037 21.6502 19.41 21.6452 19.4306C21.6152 19.5094 21.6171 19.6194 21.5158 19.6275C21.3993 19.6392 21.2817 19.6189 21.1758 19.5687C21.2602 19.5862 21.3177 19.5137 21.3902 19.4931C21.4502 19.5087 21.4715 19.4562 21.5052 19.4256C21.5758 19.3987 21.6396 19.345 21.7221 19.3494C22.1396 19.1194 22.5433 18.87 22.894 18.5406C23.0152 18.4237 23.1696 18.3675 23.3321 18.3244C23.7877 18.2031 24.2596 18.1781 24.7233 18.1C24.8952 18.0706 25.0446 18.0219 25.1608 17.8719C25.3008 17.6919 25.4883 17.5594 25.6915 17.4531C26.0571 17.2612 26.429 17.0756 26.8008 16.8912C26.8854 16.856 26.955 16.7923 26.9977 16.7112C27.2027 16.2912 27.5215 15.9787 27.904 15.7237C28.0596 15.6219 28.229 15.5581 28.4177 15.55C28.544 15.5456 28.5927 15.5806 28.5515 15.7181C28.5015 15.8919 28.389 16.0275 28.2777 16.1919C28.3471 16.1744 28.3927 16.1612 28.4402 16.1506C28.5077 16.135 28.5965 16.07 28.6421 16.1387C28.6921 16.215 28.6246 16.3019 28.5708 16.3675C28.4958 16.4587 28.4121 16.5425 28.3327 16.6281C28.3865 16.69 28.494 16.6387 28.5427 16.73C28.334 16.89 28.084 16.9844 27.8883 17.1587C27.9052 17.2087 27.9821 17.1887 27.9871 17.2625C27.8958 17.305 27.8058 17.36 27.7102 17.3919C27.574 17.4356 27.589 17.5425 27.5758 17.6469C27.574 17.6662 27.5302 17.6837 27.5021 17.6956C27.4402 17.7225 27.3752 17.7412 27.3133 17.7681C27.2646 17.7894 27.1965 17.815 27.2552 17.8844C27.3483 17.9894 27.2515 18.0069 27.1902 18.03C27.1215 18.0556 27.0433 18.0656 26.969 18.0806C26.9896 18.19 27.0396 18.2894 26.9233 18.3706C26.589 18.6019 26.2421 18.8012 25.8371 18.8781C25.8477 18.965 25.9046 18.9175 25.9458 18.9144C26.5183 18.9256 27.0215 18.72 27.4915 18.42C27.5171 18.4056 27.5521 18.3937 27.5521 18.3569C27.5521 18.3125 27.5115 18.3175 27.4858 18.305C27.4021 18.2625 27.2977 18.2575 27.224 18.1675C27.4921 17.9912 27.8202 18.07 28.104 17.945C27.9665 17.8356 27.7983 17.9269 27.6702 17.8231C27.9502 17.7287 28.2527 17.7375 28.5196 17.5556C28.3502 17.4675 28.1815 17.5556 28.0352 17.4644C28.1377 17.4069 28.2383 17.3869 28.3396 17.3612C28.514 17.3125 28.6921 17.2637 28.8502 17.1675C28.8871 17.1469 28.9358 17.125 28.924 17.0744C28.9127 17.0156 28.8583 17.035 28.8171 17.0337C28.7508 17.0337 28.6827 17.04 28.6171 17.04C28.5821 17.0387 28.5365 17.0531 28.5221 17.0075C28.5083 16.96 28.5552 16.9481 28.5846 16.9319C28.7602 16.8206 28.9365 16.7119 29.1108 16.5987C29.2721 16.4975 29.4252 16.3837 29.539 16.2287C29.5983 16.1494 29.6971 16.0444 29.619 15.9562C29.554 15.8819 29.4552 15.9869 29.3796 16.0237C29.3077 16.0587 29.244 16.1106 29.1746 16.145C29.0877 16.1869 28.9977 16.23 28.899 16.1912C28.8965 16.1806 28.894 16.1719 28.8965 16.1687C28.934 16.1387 28.9706 16.1079 29.0065 16.0762Z" fill="#FBC40E"/>
<path fill-rule="evenodd" clip-rule="evenodd" d="M25.8377 18.875C25.874 18.8879 25.9102 18.9 25.9465 18.9112C25.9028 18.9332 25.8525 18.9383 25.8052 18.9256C25.7859 18.9206 25.7502 18.9162 25.7709 18.885C25.779 18.8725 25.814 18.8769 25.8377 18.875Z" fill="#FDC40C"/>
<path fill-rule="evenodd" clip-rule="evenodd" d="M21.5066 19.425C21.4941 19.4694 21.5304 19.5287 21.4785 19.5562C21.426 19.5812 21.4079 19.5331 21.3916 19.4956C21.4043 19.476 21.4212 19.4595 21.4411 19.4472C21.461 19.435 21.4834 19.4274 21.5066 19.425Z" fill="#FBC40E"/>
<path fill-rule="evenodd" clip-rule="evenodd" d="M7.20195 19.3C7.26257 19.1738 7.32258 19.0463 7.3532 18.9069C7.4557 18.4544 7.26445 18.1338 6.83632 18.0363C6.73445 18.0019 6.6282 18.0288 6.5232 18.0213C6.25257 17.9869 6.04945 18.1075 5.88882 18.3244C5.7282 18.1069 5.54507 17.9725 5.27632 18.0213C5.1807 18.01 5.0807 18.0444 4.9857 18.0013L4.93882 18.0057C4.9232 18.0582 4.8682 18.0544 4.83007 18.0707C4.54424 18.1944 4.40924 18.4109 4.42507 18.72C4.43382 18.9157 4.49945 19.0944 4.58445 19.2682C4.92695 19.9757 5.26507 20.6863 5.60882 21.3932C5.66695 21.5119 5.69757 21.6332 5.69257 21.7632C5.68507 21.9569 5.54507 22.1044 5.34382 22.1375C5.17695 22.1644 4.9757 22.0419 4.92445 21.8707C4.88382 21.7357 4.89757 21.6013 4.98945 21.4894C5.05632 21.405 5.15008 21.3975 5.25133 21.4175C5.34195 21.435 5.38507 21.4907 5.38632 21.5769C5.38757 21.6275 5.38007 21.6844 5.31195 21.6938C5.2107 21.7063 5.20695 21.6232 5.1832 21.5582C5.1807 21.5507 5.1632 21.5494 5.15132 21.5444C5.1032 21.5694 5.1157 21.64 5.0932 21.6557C4.8982 21.7844 5.14257 21.8669 5.12445 21.9769C5.1232 21.9907 5.1782 22.0125 5.1857 21.985C5.20945 21.8875 5.2882 21.9325 5.34195 21.9182C5.48007 21.8782 5.56132 21.7957 5.56695 21.645C5.57882 21.3869 5.44445 21.2438 5.13007 21.1894C5.2107 21.0719 5.05695 20.9488 5.13882 20.8294C5.1457 20.8213 5.12882 20.7938 5.10195 20.805C4.9232 20.8719 4.99195 20.7394 4.9932 20.6657C4.99757 20.4175 4.82195 20.2175 4.58945 20.2175C4.7082 20.3957 4.76757 20.585 4.75132 20.7988C4.73499 20.9967 4.69983 21.1926 4.64632 21.3838C4.56445 21.6894 4.54132 21.9894 4.81945 22.2213C4.57757 22.3888 4.57882 22.4075 4.8282 22.5563C4.5857 22.8075 4.53007 22.9838 4.62382 23.3382C4.73632 23.7632 4.8482 24.1825 4.5482 24.6007C4.87257 24.5369 5.01945 24.3594 5.00757 24.0788C5.00632 24.0363 4.96382 23.9575 5.05695 23.9857C5.17195 24.02 5.14195 23.9563 5.12882 23.9007C5.1207 23.8657 5.10632 23.8307 5.09445 23.795C5.30507 23.7569 5.12632 23.6632 5.1182 23.5838C5.19766 23.5911 5.27763 23.5768 5.34968 23.5425C5.42172 23.5082 5.48318 23.4551 5.52757 23.3888C5.55507 23.3038 5.58195 23.2175 5.56445 23.1257C5.53507 22.9794 5.4632 22.8794 5.29507 22.8844C5.2557 22.8869 5.2007 22.9213 5.18507 22.8519C5.1582 22.7238 5.10132 22.7982 5.10445 22.8488C5.10945 22.9588 5.00195 22.9488 4.95507 23.0232C5.0507 23.07 5.11945 23.1432 5.11695 23.2632C5.11945 23.2652 5.12299 23.2669 5.12758 23.2682C5.15758 23.255 5.17007 23.2525 5.17132 23.2469C5.18632 23.1725 5.1832 23.0825 5.29632 23.0944C5.3457 23.0994 5.37695 23.1338 5.37695 23.1863C5.38007 23.2832 5.32695 23.3413 5.2332 23.3607C5.0907 23.3894 4.9807 23.3375 4.91882 23.205C4.8432 23.0432 4.89007 22.8488 5.02132 22.755C5.17007 22.6488 5.4357 22.64 5.56445 22.7438C5.72132 22.8694 5.7032 23.0332 5.6507 23.1994C5.62882 23.2644 5.61882 23.3357 5.5682 23.3888C5.47778 23.6138 5.38841 23.839 5.30007 24.0644C5.24445 24.2082 5.22695 24.355 5.36257 24.47C5.49257 24.5813 5.64257 24.5875 5.79257 24.5144C5.8682 24.4769 5.92632 24.4713 6.00445 24.5113C6.15882 24.5913 6.31632 24.5819 6.4482 24.4594C6.57695 24.34 6.54882 24.1932 6.4932 24.0507C6.41195 23.8423 6.32966 23.6352 6.24632 23.4294C6.18007 23.3319 6.15382 23.2207 6.1257 23.1094C6.0857 22.9419 6.12445 22.8025 6.27945 22.715C6.43757 22.6263 6.72195 22.6713 6.8332 22.8013C6.94695 22.9338 6.9382 23.085 6.86632 23.2313C6.8082 23.3488 6.6982 23.3832 6.57257 23.3607C6.48132 23.3457 6.42382 23.2888 6.41882 23.1932C6.41632 23.1325 6.45695 23.095 6.5132 23.0913C6.62757 23.0832 6.6032 23.1907 6.63945 23.2625C6.74695 23.2107 6.69007 23.0288 6.84945 23.0344C6.82507 23.0025 6.81382 22.9744 6.80257 22.9744C6.67382 22.9732 6.68445 22.7394 6.64195 22.7938C6.57695 22.8825 6.52382 22.8775 6.4432 22.8863C6.30757 22.9007 6.20632 23.065 6.23195 23.2244C6.2432 23.2925 6.2732 23.3575 6.29507 23.4238C6.34815 23.4806 6.41358 23.5244 6.48631 23.5518C6.55904 23.5792 6.6371 23.5895 6.71445 23.5819C6.52007 23.7188 6.76507 23.8525 6.6707 23.9775C6.6807 23.9813 6.6932 23.9919 6.70257 23.99C6.87195 23.9363 6.7882 24.07 6.79132 24.1194C6.80132 24.3794 6.9557 24.5513 7.24632 24.5869C6.9732 24.1913 7.05382 23.7894 7.1707 23.38C7.25632 23.0744 7.26007 22.7732 6.96445 22.5538C7.2207 22.4119 7.2207 22.4119 6.99507 22.21C7.22883 21.9525 7.26132 21.7907 7.15945 21.395C7.0557 20.9932 6.95882 20.5925 7.22382 20.1882C7.15237 20.1971 7.08383 20.2219 7.02325 20.2609C6.96268 20.2998 6.91161 20.3519 6.87382 20.4132C6.78757 20.5369 6.79445 20.6757 6.83008 20.8082C6.76445 20.8469 6.71132 20.7725 6.63507 20.8325C6.7957 20.935 6.53757 21.0663 6.69195 21.185C6.52507 21.2075 6.38382 21.24 6.29757 21.3807C6.14632 21.6282 6.26882 21.8007 6.52632 21.9344C6.77195 22.0607 6.6882 21.78 6.80257 21.7813C6.7507 21.6994 6.69945 21.6157 6.63945 21.52C6.58945 21.5957 6.60382 21.7157 6.48445 21.69C6.42195 21.6769 6.41007 21.625 6.41257 21.5707C6.42007 21.4588 6.4932 21.42 6.5932 21.4088C6.6982 21.3969 6.78382 21.4288 6.83695 21.5238C6.9232 21.675 6.93132 21.8319 6.82195 21.9738C6.72132 22.1025 6.59007 22.1732 6.4182 22.125C6.24007 22.0763 6.12757 21.9657 6.10757 21.7775C6.09382 21.6394 6.13507 21.5138 6.19632 21.39C6.52966 20.6942 6.86487 19.9975 7.20195 19.3ZM6.3382 22.4C6.18757 22.465 6.04632 22.5063 5.95132 22.6225C5.9132 22.6675 5.88445 22.6625 5.84757 22.6169C5.7507 22.5019 5.60882 22.4607 5.44945 22.3969C5.62132 22.3469 5.75695 22.2788 5.85382 22.1532C5.88382 22.1138 5.91195 22.1063 5.94257 22.1475C6.0357 22.2788 6.17882 22.3369 6.3382 22.4ZM5.95195 21.2632C5.93945 21.2907 5.92007 21.3157 5.89257 21.36L4.84632 19.1438C4.7832 19.0113 4.72257 18.8775 4.71757 18.7257C4.71216 18.6484 4.73083 18.5713 4.77101 18.505C4.81119 18.4388 4.87091 18.3866 4.94195 18.3557C5.01285 18.3161 5.09404 18.2989 5.17489 18.3062C5.25574 18.3136 5.33248 18.3452 5.39507 18.3969C5.4319 18.4231 5.46186 18.4578 5.48242 18.4981C5.50299 18.5383 5.51354 18.583 5.5132 18.6282C5.5132 18.71 5.47507 18.7819 5.38445 18.7938C5.29382 18.8057 5.21882 18.7713 5.1932 18.6725C5.1832 18.6325 5.18445 18.5894 5.1807 18.5363C5.01445 18.6025 5.03695 18.8344 4.85695 18.8713C4.84945 18.8725 4.84757 18.9013 4.84382 18.9175C5.03757 18.9544 4.99695 19.2069 5.18132 19.28C5.16632 18.8525 5.57007 19.1275 5.72445 18.9482C5.72445 19.1082 5.72195 19.2694 5.7257 19.4282C5.7307 19.7019 5.68195 19.7494 5.40007 19.7275L5.32445 19.7157C5.36695 19.9319 5.40507 19.9625 5.7357 20.045C5.57007 20.2538 5.66632 20.4357 5.7932 20.6138C5.85945 20.7094 5.92195 20.7188 6.00257 20.6213C6.15695 20.4357 6.1832 20.255 6.0682 20.0332C6.25257 20.0113 6.42382 19.9675 6.47757 19.7563C6.4657 19.7475 6.45695 19.7363 6.44695 19.7363C6.05757 19.7163 6.05882 19.7163 6.0682 19.3269C6.07195 19.2063 6.06945 19.0844 6.09195 18.9475C6.23507 19.1188 6.61257 18.8625 6.61132 19.2669C6.71195 19.2582 6.75132 19.19 6.77445 19.105C6.7832 19.075 6.7832 19.0244 6.8007 19.0194C7.05632 18.9257 6.93882 18.865 6.79695 18.7694C6.72632 18.72 6.74632 18.57 6.61007 18.5432C6.60757 18.59 6.60757 18.6319 6.6007 18.6732C6.58632 18.7707 6.51257 18.7969 6.43132 18.7957C6.34257 18.7944 6.29632 18.7363 6.2882 18.6469C6.27445 18.4994 6.40382 18.3494 6.57632 18.3144C6.63899 18.3008 6.70396 18.3021 6.76607 18.318C6.82818 18.3339 6.88572 18.3641 6.93414 18.4061C6.98255 18.4481 7.02049 18.5009 7.04496 18.5602C7.06942 18.6194 7.07973 18.6836 7.07507 18.7475C7.07064 18.8437 7.04772 18.9381 7.00757 19.0257C6.65674 19.7719 6.30487 20.5177 5.95195 21.2632Z" fill="#FDC40C"/>
</svg>
