<svg width="26.250000" height="26.250000" viewBox="0 0 26.25 26.25" fill="none" xmlns="http://www.w3.org/2000/svg" xmlns:xlink="http://www.w3.org/1999/xlink">
	<path id="Vector" d="M23.33 0C24.1 0 24.84 0.3 25.39 0.85C25.94 1.4 26.25 2.14 26.25 2.91L26.25 23.33C26.25 24.1 25.94 24.84 25.39 25.39C24.84 25.94 24.1 26.25 23.33 26.25L2.91 26.25C2.14 26.25 1.4 25.94 0.85 25.39C0.3 24.84 0 24.1 0 23.33L0 2.91C0 2.14 0.3 1.4 0.85 0.85C1.4 0.3 2.14 0 2.91 0L23.33 0ZM22.6 22.6L22.6 14.87C22.6 13.61 22.1 12.4 21.21 11.51C20.32 10.62 19.11 10.12 17.84 10.12C16.61 10.12 15.16 10.87 14.46 12.01L14.46 10.39L10.39 10.39L10.39 22.6L14.46 22.6L14.46 15.41C14.46 14.29 15.37 13.37 16.49 13.37C17.03 13.37 17.55 13.58 17.93 13.97C18.32 14.35 18.53 14.87 18.53 15.41L18.53 22.6L22.6 22.6ZM5.65 8.1C6.3 8.1 6.93 7.85 7.39 7.39C7.85 6.93 8.1 6.3 8.1 5.65C8.1 4.3 7.01 3.19 5.65 3.19C5 3.19 4.37 3.45 3.91 3.91C3.45 4.37 3.19 5 3.19 5.65C3.19 7.01 4.3 8.1 5.65 8.1ZM7.68 22.6L7.68 10.39L3.64 10.39L3.64 22.6L7.68 22.6Z" fill="#0060AE" fill-opacity="1.000000" fill-rule="nonzero"/>
	<path id="Vector" d="M23.33 0C24.1 0 24.84 0.3 25.39 0.85C25.94 1.4 26.25 2.14 26.25 2.91L26.25 23.33C26.25 24.1 25.94 24.84 25.39 25.39C24.84 25.94 24.1 26.25 23.33 26.25L2.91 26.25C2.14 26.25 1.4 25.94 0.85 25.39C0.3 24.84 0 24.1 0 23.33L0 2.91C0 2.14 0.3 1.4 0.85 0.85C1.4 0.3 2.14 0 2.91 0L23.33 0ZM24.06 1.14Q24.4 1.28 24.68 1.56Q24.96 1.84 25.1 2.18Q25.25 2.51 25.25 2.91L25.25 23.33Q25.25 23.73 25.1 24.06Q24.96 24.4 24.68 24.68Q24.4 24.96 24.06 25.1Q23.73 25.25 23.33 25.25L2.91 25.25Q2.51 25.25 2.18 25.1Q1.84 24.96 1.56 24.68Q1.28 24.4 1.14 24.06Q1 23.73 1 23.33L1 2.91Q1 2.51 1.14 2.18Q1.28 1.84 1.56 1.56Q1.84 1.28 2.18 1.14Q2.51 1 2.91 1L23.33 1Q23.73 1 24.06 1.14ZM6.98 8.85Q7.59 8.6 8.09 8.09Q8.6 7.59 8.85 6.98Q9.1 6.37 9.1 5.65Q9.1 4.94 8.85 4.32Q8.6 3.71 8.1 3.21Q7.59 2.69 6.97 2.44Q6.36 2.19 5.65 2.19Q4.94 2.19 4.32 2.44Q3.71 2.7 3.2 3.2Q2.7 3.71 2.44 4.32Q2.19 4.94 2.19 5.65Q2.19 7.37 3.05 8.23Q3.91 9.1 5.65 9.1Q6.37 9.1 6.98 8.85ZM5.65 8.1C6.3 8.1 6.93 7.85 7.39 7.39C7.85 6.93 8.1 6.3 8.1 5.65C8.1 4.3 7.01 3.19 5.65 3.19C5 3.19 4.37 3.45 3.91 3.91C3.45 4.37 3.19 5 3.19 5.65C3.19 7.01 4.3 8.1 5.65 8.1ZM23.6 23.6L23.6 14.87Q23.6 13.68 23.18 12.66Q22.76 11.64 21.91 10.8Q21.07 9.96 20.05 9.54Q19.04 9.12 17.84 9.12Q16.5 9.12 15.46 9.67L15.46 9.39L9.39 9.39L9.39 23.6L15.46 23.6L15.46 15.41Q15.46 15.19 15.54 15Q15.62 14.82 15.76 14.67Q15.92 14.52 16.11 14.44Q16.28 14.37 16.49 14.37Q16.7 14.37 16.89 14.44Q17.07 14.52 17.23 14.67Q17.38 14.83 17.45 15.01Q17.53 15.19 17.53 15.41L17.53 23.6L23.6 23.6ZM15.46 10.95C16.17 10.43 17.05 10.12 17.84 10.12C19.11 10.12 20.32 10.62 21.21 11.51C22.1 12.4 22.6 13.61 22.6 14.87L22.6 22.6L18.53 22.6L18.53 15.41C18.53 14.87 18.32 14.35 17.93 13.97C17.55 13.58 17.03 13.37 16.49 13.37C15.37 13.37 14.46 14.29 14.46 15.41L14.46 22.6L10.39 22.6L10.39 10.39L14.46 10.39L14.46 12.01C14.71 11.6 15.06 11.24 15.46 10.95ZM8.68 23.6L8.68 9.39L2.64 9.39L2.64 23.6L8.68 23.6ZM7.68 11.39L7.68 10.39L3.64 10.39L3.64 22.6L7.68 22.6L7.68 11.39Z" fill="#000000" fill-opacity="1.000000" fill-rule="evenodd"/>
</svg>
