<svg width="20.000000" height="20.000000" viewBox="0 0 20 20" fill="none" xmlns="http://www.w3.org/2000/svg" xmlns:xlink="http://www.w3.org/1999/xlink">
	<path id="Vector" d="M14.97 8.55C14.97 9.4 14.81 10.23 14.49 11.01C14.16 11.79 13.69 12.5 13.09 13.09C12.5 13.69 11.79 14.16 11.01 14.49C10.23 14.81 9.4 14.97 8.55 14.97C7.71 14.97 6.88 14.81 6.1 14.49C5.32 14.16 4.61 13.69 4.01 13.09C3.42 12.5 2.95 11.79 2.62 11.01C2.3 10.23 2.13 9.4 2.13 8.55C2.13 6.85 2.81 5.22 4.01 4.01C5.22 2.81 6.85 2.13 8.55 2.13C10.26 2.13 11.89 2.81 13.09 4.01C14.3 5.22 14.97 6.85 14.97 8.55ZM13.8 15.32C12.08 16.65 9.92 17.28 7.75 17.08C5.58 16.87 3.58 15.85 2.14 14.22C0.7 12.58 -0.07 10.46 0 8.29C0.07 6.11 0.96 4.04 2.5 2.5C4.04 0.96 6.11 0.07 8.29 0C10.46 -0.07 12.58 0.69 14.22 2.14C15.85 3.58 16.87 5.58 17.08 7.75C17.28 9.92 16.65 12.08 15.32 13.8L19.65 18.14C19.76 18.24 19.84 18.36 19.9 18.49C19.96 18.62 19.99 18.76 20 18.91C20 19.05 19.97 19.19 19.92 19.33C19.86 19.46 19.78 19.58 19.68 19.68C19.58 19.78 19.46 19.86 19.33 19.92C19.19 19.97 19.05 20 18.91 19.99C18.76 19.99 18.62 19.96 18.49 19.9C18.36 19.84 18.24 19.76 18.14 19.65L13.8 15.32Z" fill="#0D0808" fill-opacity="0.800000" fill-rule="evenodd"/>
</svg>
