<svg width="29.166992" height="29.166748" viewBox="0 0 29.167 29.1667" fill="none" xmlns="http://www.w3.org/2000/svg" xmlns:xlink="http://www.w3.org/1999/xlink">
	<path id="Vector" d="M14.58 0C6.53 0 0 6.53 0 14.58C0 22.63 6.53 29.16 14.58 29.16C22.63 29.16 29.16 22.63 29.16 14.58C29.16 6.53 22.63 0 14.58 0ZM21.34 9.91C21.13 12.22 20.18 17.82 19.7 20.4C19.49 21.49 19.08 21.86 18.7 21.9C17.86 21.97 17.22 21.35 16.4 20.81C15.12 19.96 14.39 19.43 13.15 18.62C11.71 17.67 12.64 17.14 13.47 16.3C13.69 16.08 17.42 12.68 17.5 12.38C17.5 12.33 17.5 12.28 17.49 12.24C17.48 12.19 17.45 12.15 17.42 12.11C17.33 12.04 17.22 12.07 17.12 12.08C16.98 12.11 14.94 13.47 10.96 16.15C10.38 16.55 9.85 16.75 9.39 16.74C8.86 16.72 7.87 16.45 7.13 16.2C6.21 15.91 5.49 15.75 5.55 15.23C5.58 14.97 5.95 14.71 6.63 14.43C10.89 12.58 13.72 11.36 15.13 10.77C19.19 9.08 20.02 8.79 20.57 8.79C20.69 8.79 20.97 8.82 21.14 8.96C21.29 9.08 21.33 9.24 21.34 9.36C21.33 9.44 21.36 9.71 21.34 9.91Z" fill="#0060AE" fill-opacity="1.000000" fill-rule="nonzero"/>
	<path id="Vector" d="M14.58 0C6.53 0 0 6.53 0 14.58C0 22.63 6.53 29.16 14.58 29.16C22.63 29.16 29.16 22.63 29.16 14.58C29.16 6.53 22.63 0 14.58 0ZM1.98 19.78Q1 17.38 1 14.58Q1 11.78 1.98 9.38Q2.98 6.97 4.98 4.97Q6.97 2.98 9.38 1.98Q11.78 1 14.58 1Q17.38 1 19.78 1.98Q22.19 2.98 24.18 4.97Q26.18 6.97 27.17 9.38Q28.16 11.78 28.16 14.58Q28.16 17.38 27.17 19.78Q26.18 22.19 24.18 24.18Q22.19 26.18 19.78 27.17Q17.38 28.16 14.58 28.16Q11.78 28.16 9.38 27.17Q6.97 26.18 4.98 24.18Q2.98 22.19 1.98 19.78ZM19.46 22.7Q20.38 22.21 20.68 20.58L20.68 20.58Q22.02 13.41 22.34 10.01L22.34 9.99L22.34 9.98Q22.35 9.82 22.34 9.54L22.33 9.52L22.36 9.38L22.34 9.23Q22.28 8.8 22.06 8.49Q21.94 8.33 21.78 8.2Q21.67 8.1 21.54 8.03Q21.12 7.79 20.57 7.79Q19.69 7.79 14.74 9.85L6.25 13.51Q4.78 14.11 4.58 14.99Q4.57 15.05 4.56 15.12Q4.53 15.38 4.59 15.61Q4.84 16.54 6.55 17.07Q6.73 17.12 6.81 17.15Q8.51 17.71 9.36 17.74Q10.36 17.77 11.52 16.98Q11.56 16.96 11.6 16.93Q11.47 17.16 11.43 17.36Q11.37 17.65 11.41 17.91Q11.53 18.75 12.6 19.45Q13.21 19.85 14.19 20.52Q15.2 21.21 15.85 21.64Q16 21.74 16.29 21.95Q17.75 22.99 18.79 22.9L18.81 22.89L18.82 22.89Q19.17 22.85 19.46 22.7ZM15.21 13.31C15.76 12.94 16.2 12.65 16.51 12.45C16.88 12.21 17.08 12.09 17.12 12.08C17.13 12.08 17.14 12.08 17.15 12.08C17.24 12.06 17.34 12.05 17.42 12.11C17.45 12.15 17.48 12.19 17.49 12.24C17.5 12.28 17.5 12.33 17.5 12.38C17.48 12.42 17.4 12.53 17.25 12.69C17.24 12.7 17.22 12.72 17.21 12.73C17.13 12.81 17.05 12.9 16.95 13C16.65 13.31 16.25 13.69 15.83 14.09C14.78 15.09 13.59 16.18 13.47 16.3C13.36 16.41 13.24 16.52 13.13 16.63C12.43 17.29 11.9 17.8 13.15 18.62C14.39 19.43 15.12 19.96 16.4 20.81C16.57 20.91 16.72 21.03 16.87 21.13C17.48 21.57 18.03 21.96 18.7 21.9C19.08 21.86 19.49 21.49 19.7 20.4C20.18 17.82 21.13 12.22 21.34 9.91C21.35 9.8 21.35 9.68 21.34 9.57L21.34 9.57C21.34 9.48 21.34 9.4 21.34 9.36C21.33 9.24 21.29 9.08 21.14 8.96C20.97 8.82 20.69 8.79 20.57 8.79C20.02 8.79 19.19 9.08 15.13 10.77C13.72 11.36 10.89 12.58 6.63 14.43C5.95 14.71 5.58 14.97 5.55 15.23C5.5 15.69 6.07 15.87 6.85 16.11C6.94 16.14 7.03 16.17 7.13 16.2C7.87 16.45 8.86 16.72 9.39 16.74C9.85 16.75 10.38 16.55 10.96 16.15C12.78 14.93 14.19 13.98 15.21 13.31Z" fill="#000000" fill-opacity="1.000000" fill-rule="evenodd"/>
</svg>
