<svg width="40" height="28" viewBox="0 0 40 28" fill="none" xmlns="http://www.w3.org/2000/svg">
<path d="M0 8.75H40V18.75H0V8.75Z" fill="#EEEEEE"/>
<path d="M33.75 0H6.25C2.10813 0 0 3.07812 0 6.875V8.75H40V6.875C40 3.07812 37.8919 0 33.75 0Z" fill="#EC1C24"/>
<path d="M0 20.625C0 24.4219 2.10813 27.5 6.25 27.5H33.75C37.8919 27.5 40 24.4219 40 20.625V18.75H0V20.625Z" fill="#128807"/>
<path fill-rule="evenodd" clip-rule="evenodd" d="M23.0299 17.5074C21.286 16.9929 19.4311 16.9897 17.6855 17.498C17.6255 17.5149 17.6024 17.5024 17.5867 17.4424C17.5644 17.3448 17.5362 17.2486 17.5024 17.1543C17.4817 17.0905 17.498 17.0699 17.5605 17.0505C17.9666 16.9335 18.3797 16.8422 18.7974 16.7774C20.2368 16.5528 21.708 16.6453 23.108 17.0487C23.1811 17.0699 23.1974 17.0955 23.1717 17.1643C23.1361 17.2618 23.1099 17.363 23.0817 17.463C23.0717 17.4987 23.0611 17.5205 23.0299 17.5074ZM16.4261 13.0387C16.4755 12.8862 16.513 12.7543 16.5611 12.6268C16.5861 12.5605 16.5724 12.5262 16.5142 12.4893C16.4018 12.4143 16.2956 12.3302 16.1967 12.238C16.3199 12.238 16.4455 12.2305 16.5674 12.2412C16.6655 12.2499 16.703 12.2099 16.7261 12.1237C16.7574 12.0043 16.7999 11.888 16.8474 11.7399C16.8967 11.8905 16.9399 12.0137 16.9742 12.1405C16.9955 12.2199 17.0342 12.2449 17.1167 12.2393C17.243 12.2318 17.3699 12.2374 17.5261 12.2374C17.4017 12.3299 17.3005 12.4093 17.193 12.4787C17.1267 12.5218 17.1061 12.563 17.1374 12.6418C17.1855 12.7618 17.2199 12.888 17.268 13.0374C17.1311 12.9393 17.018 12.8599 16.9074 12.7749C16.863 12.7412 16.8317 12.7424 16.7855 12.7768C16.6749 12.863 16.5605 12.9424 16.4261 13.0387ZM23.1761 12.2418C23.3086 12.2418 23.4424 12.2368 23.5749 12.2437C23.6461 12.248 23.6742 12.2212 23.693 12.1555C23.7299 12.0274 23.7742 11.9024 23.8249 11.7462C23.8774 11.9024 23.9236 12.0318 23.9599 12.1637C23.9774 12.2287 24.0099 12.2449 24.073 12.2437C24.2061 12.2399 24.3392 12.2418 24.5036 12.2418C24.368 12.3399 24.2592 12.4268 24.1449 12.503C24.0949 12.5362 24.0899 12.5674 24.108 12.6199C24.1542 12.7505 24.1949 12.8837 24.2467 13.0424C24.1155 12.948 24.003 12.873 23.8992 12.7887C23.8417 12.7424 23.8042 12.7474 23.7505 12.7893C23.6461 12.8718 23.5355 12.9468 23.4049 13.0412C23.4549 12.8837 23.4949 12.7499 23.5417 12.6193C23.5617 12.5649 23.5542 12.5349 23.5055 12.5024C23.3917 12.4249 23.2824 12.3418 23.1717 12.2599L23.1761 12.2418ZM19.9261 10.9905C19.9724 10.8512 20.013 10.7149 20.063 10.5787C20.0811 10.5274 20.0505 10.5124 20.0217 10.4912L19.658 10.2268C19.8167 10.2268 19.9455 10.2205 20.0742 10.2287C20.1592 10.2355 20.1905 10.2037 20.2124 10.1262C20.2453 10.0009 20.2912 9.87945 20.3492 9.76367C20.3917 9.89117 20.4386 10.018 20.4736 10.1474C20.4917 10.2118 20.523 10.2305 20.5861 10.2287C20.7192 10.2243 20.8536 10.2268 21.018 10.2268C20.8911 10.318 20.7911 10.3974 20.6861 10.468C20.6205 10.5105 20.5967 10.5493 20.6286 10.6293C20.6786 10.7487 20.7105 10.8755 20.7592 11.0262C20.6242 10.928 20.5092 10.8487 20.4005 10.7655C20.3555 10.7312 20.3236 10.7293 20.2786 10.7643C20.1939 10.8308 20.1068 10.8942 20.0174 10.9543C19.9905 10.973 19.9686 11.0043 19.9261 10.9905ZM15.6636 14.2574C15.8005 14.2574 15.9374 14.253 16.0736 14.258C16.1299 14.2593 16.1567 14.2424 16.173 14.1868C16.2117 14.0562 16.2567 13.9268 16.3205 13.7924C16.3592 13.9068 16.4017 14.0199 16.4317 14.1368C16.4549 14.228 16.4949 14.268 16.5961 14.258C16.7155 14.248 16.8367 14.2574 16.9905 14.2574C16.8686 14.3455 16.7717 14.4249 16.6667 14.4893C16.5886 14.5387 16.5711 14.5868 16.608 14.6749C16.6555 14.7887 16.6842 14.9087 16.7311 15.0555C16.598 14.9599 16.488 14.8849 16.383 14.8018C16.328 14.7574 16.288 14.7605 16.2355 14.8049C16.1586 14.868 16.0755 14.9237 15.9917 14.9824C15.9655 15.0012 15.9436 15.0312 15.8986 15.0205C15.9399 14.8937 15.9805 14.7655 16.0267 14.6412C16.0499 14.5799 16.0355 14.5462 15.9817 14.5099C15.8711 14.4362 15.7649 14.3549 15.6567 14.2768L15.6636 14.2574ZM23.9574 15.0193C24.0049 14.8762 24.0486 14.7374 24.0974 14.5987C24.1149 14.5505 24.0761 14.5393 24.0524 14.5212C23.9392 14.438 23.8286 14.3562 23.6886 14.2574C23.848 14.2574 23.9774 14.2524 24.1055 14.258C24.1817 14.2618 24.2192 14.2424 24.2392 14.1637C24.2744 14.0363 24.3217 13.9126 24.3805 13.7943C24.4224 13.9218 24.4699 14.048 24.5049 14.178C24.5236 14.243 24.5561 14.2593 24.6186 14.258C24.7517 14.253 24.8842 14.2574 25.0511 14.2574C24.9174 14.3524 24.8099 14.4349 24.6992 14.5099C24.6461 14.5455 24.6317 14.5793 24.6536 14.6405C24.6999 14.7687 24.7411 14.8993 24.7905 15.0574C24.6536 14.958 24.5405 14.8774 24.4299 14.7943C24.3849 14.7587 24.3524 14.7587 24.308 14.7943C24.2226 14.8593 24.1361 14.9226 24.0486 14.9843C24.0224 15.0024 24.0005 15.0343 23.9574 15.0193ZM17.9136 11.5299C17.9505 11.4193 17.9786 11.3055 18.0242 11.1993C18.0611 11.1068 18.0536 11.0487 17.9605 10.9955C17.8592 10.9355 17.7661 10.8568 17.6442 10.768C17.8055 10.768 17.9355 10.7643 18.0642 10.7699C18.1349 10.7724 18.1705 10.7537 18.1917 10.6787C18.2267 10.5524 18.2724 10.4274 18.3236 10.2737C18.3755 10.4318 18.4217 10.5637 18.4617 10.6962C18.478 10.7518 18.503 10.7705 18.5599 10.7699C18.6967 10.7643 18.8324 10.768 18.9774 10.7868C18.8711 10.8643 18.7649 10.9443 18.6574 11.018C18.5986 11.0562 18.5849 11.0924 18.6086 11.158C18.6561 11.2812 18.6924 11.4087 18.7142 11.5468C18.6124 11.4712 18.5061 11.4005 18.4074 11.3218C18.3486 11.2749 18.3036 11.2699 18.2411 11.3199C18.1436 11.3993 18.0374 11.4705 17.9355 11.5449C17.9292 11.5391 17.9219 11.5341 17.9136 11.5299ZM21.7067 10.7674C21.8436 10.7674 21.9786 10.7655 22.1149 10.7693C22.1724 10.7699 22.1992 10.753 22.2149 10.6968C22.2542 10.563 22.3011 10.4312 22.353 10.273C22.4055 10.4324 22.4517 10.5643 22.4917 10.6968C22.508 10.7524 22.5349 10.7699 22.5911 10.7693C22.7301 10.7633 22.8693 10.769 23.0074 10.7862C22.8974 10.8662 22.7892 10.948 22.678 11.0249C22.6267 11.058 22.6167 11.0912 22.6367 11.1487C22.683 11.2743 22.7217 11.4018 22.7436 11.5455C22.6442 11.4724 22.5405 11.4037 22.4449 11.3255C22.3792 11.2712 22.3286 11.2693 22.263 11.3249C22.1649 11.4061 22.058 11.4759 21.9442 11.533C21.9836 11.413 22.0186 11.288 22.0636 11.1693C22.0899 11.0962 22.0792 11.0549 22.0124 11.013C21.9061 10.9443 21.8061 10.8649 21.7024 10.7905L21.7067 10.7674ZM18.6099 16.6568C18.4305 16.6505 18.2842 16.5668 18.153 16.4518C18.1211 16.4243 18.123 16.4074 18.1574 16.3855C18.2405 16.3318 18.3661 16.3305 18.4117 16.2612C18.4561 16.193 18.4317 16.0793 18.473 15.9918C18.5374 15.8505 18.5567 15.8474 18.668 15.9605C18.6813 15.9751 18.6944 15.9901 18.7074 16.0055C18.8424 16.1705 18.8424 16.1705 19.0549 16.2118C19.1586 16.2305 19.1617 16.2387 19.1074 16.3293C18.9936 16.5155 18.8436 16.6493 18.6099 16.6568ZM20.3486 16.5155C20.1299 16.5068 19.9774 16.3899 19.8467 16.2305C19.8199 16.1962 19.8317 16.1799 19.8686 16.1662C19.9355 16.1418 20.0011 16.1155 20.0724 16.1112C20.1292 16.1105 20.153 16.093 20.1599 16.0312C20.1699 15.928 20.2217 15.843 20.2892 15.7643C20.323 15.7243 20.3486 15.7193 20.3836 15.763C20.4492 15.8449 20.5055 15.9318 20.5274 16.0362C20.5361 16.078 20.5536 16.0968 20.598 16.1005C20.6749 16.108 20.7505 16.1249 20.8217 16.1593C20.8549 16.1762 20.8661 16.1924 20.838 16.2274C20.7136 16.3924 20.5611 16.5062 20.3486 16.5155ZM22.1236 16.6568C21.8724 16.6555 21.6211 16.4768 21.553 16.2868C21.5374 16.2449 21.553 16.2374 21.5905 16.2293C21.6624 16.2127 21.7363 16.2068 21.8099 16.2118C21.8605 16.2155 21.8786 16.2005 21.8936 16.1512C21.9217 16.0437 21.9936 15.9649 22.078 15.8949C22.1111 15.8649 22.133 15.868 22.1561 15.908C22.2042 15.9918 22.2549 16.0787 22.2524 16.178C22.2511 16.2549 22.2842 16.2812 22.3524 16.2962C22.4138 16.3116 22.4717 16.3385 22.523 16.3755C22.5592 16.3999 22.5655 16.4205 22.5305 16.4537C22.4024 16.5743 22.2555 16.6537 22.1236 16.6568Z" fill="#FFAC33"/>
<path fill-rule="evenodd" clip-rule="evenodd" d="M23.0455 15.7493C22.6948 15.6468 22.4567 15.4156 22.308 15.0843L22.2698 15.1174C21.6167 15.6518 20.6548 15.3212 20.4961 14.4924C20.4311 14.1512 20.4648 13.7962 20.4855 13.4481C20.4948 13.2943 20.6548 13.1793 20.8111 13.1699C20.9492 13.1631 21.0517 13.2293 21.1392 13.3293C21.2648 12.9993 21.1267 12.5974 20.8205 12.3831C20.6647 12.2753 20.4775 12.2225 20.2884 12.2333C20.0993 12.2441 19.9192 12.3177 19.7767 12.4424C19.483 12.6931 19.4317 13.1231 19.538 13.3274C19.6586 13.1818 19.8086 13.1256 19.9855 13.2006C20.1598 13.2762 20.2055 13.4262 20.2017 13.6062C20.1942 13.8443 20.2005 14.0831 20.2005 14.3212C20.1967 14.8537 19.7511 15.3293 19.2217 15.3699C19.0681 15.3853 18.913 15.3681 18.7664 15.3195C18.6198 15.271 18.4852 15.1921 18.3711 15.0881C18.0805 15.7462 17.303 16.0099 16.658 15.6031C16.6498 15.8468 16.838 16.1124 17.0892 16.2131C17.6067 16.4168 18.2523 16.0968 18.4042 15.5612C18.4173 15.5181 18.4286 15.4737 18.4436 15.4168C18.478 15.4624 18.5011 15.4968 18.5255 15.5312C18.6586 15.7043 18.8198 15.8393 19.0336 15.8924C19.4242 15.9887 19.738 15.8456 20.0011 15.5656C20.158 15.4006 20.2555 15.2006 20.3311 14.9818C20.368 15.0112 20.3692 15.0468 20.3798 15.0762C20.4492 15.2599 20.5473 15.4274 20.6792 15.5724C21.1392 16.0756 21.7998 16.0331 22.1892 15.4774C22.2017 15.4606 22.2036 15.4324 22.2342 15.4343C22.2392 15.4424 22.2455 15.4474 22.2467 15.4531C22.3386 16.0424 22.9642 16.3549 23.4411 16.2562C23.7667 16.1906 24.018 15.9131 24.0198 15.5968C23.7155 15.7906 23.3886 15.8493 23.0455 15.7493ZM20.3792 13.1843C20.3473 13.2256 20.3342 13.2368 20.2961 13.1881C20.2389 13.1087 20.1613 13.0463 20.0715 13.0073C19.9817 12.9684 19.8831 12.9544 19.7861 12.9668C19.7248 12.9718 19.7286 12.9437 19.7373 12.9012C19.7917 12.6449 20.0461 12.4431 20.3267 12.4406C20.6173 12.4374 20.8736 12.6312 20.9373 12.8993C20.9605 12.9974 20.8973 12.9618 20.853 12.9612C20.7619 12.9577 20.6713 12.9761 20.5889 13.015C20.5064 13.0538 20.4345 13.1119 20.3792 13.1843Z" fill="#FFAC33"/>
</svg>
