<svg width="40" height="27" viewBox="0 0 40 27" fill="none" xmlns="http://www.w3.org/2000/svg">
<path d="M40 20C40 23.6818 37.8919 26.6667 33.75 26.6667H6.25C2.10813 26.6667 0 23.6818 0 20V6.66667C0 2.98485 2.10813 0 6.25 0H33.75C37.8919 0 40 2.98485 40 6.66667V20Z" fill="#EC1C24"/>
<path d="M16.4023 18.9373C14.9223 18.9373 13.503 18.3494 12.4565 17.3029C11.41 16.2564 10.822 14.8371 10.822 13.3571C10.822 11.8771 11.41 10.4578 12.4565 9.41126C13.503 8.36476 14.9223 7.77684 16.4023 7.77684C17.6206 7.77684 18.746 8.17211 19.6639 8.83523C19.024 8.10713 18.2362 7.52388 17.353 7.12438C16.4698 6.72488 15.5116 6.51832 14.5422 6.51849C12.7285 6.51849 10.9891 7.23899 9.70659 8.52147C8.42411 9.80396 7.70361 11.5434 7.70361 13.3571C7.70349 14.2552 7.88029 15.1446 8.2239 15.9744C8.56752 16.8042 9.07123 17.5582 9.70626 18.1933C10.3413 18.8284 11.0952 19.3322 11.925 19.676C12.7547 20.0197 13.6441 20.1966 14.5422 20.1966C16.5836 20.1966 18.4112 19.2973 19.6639 17.8789C18.7159 18.5676 17.574 18.9381 16.4023 18.9373ZM20.0415 13.571L22.3108 14.0937L22.5154 16.4123L23.7133 14.4164L25.9826 14.9382L24.4537 13.1822L25.6506 11.1854L23.5087 12.0969L21.9797 10.34L22.1844 12.6596L20.0415 13.571Z" fill="#EEEEEE"/>
</svg>
