<svg width="40" height="29" viewBox="0 0 40 29" fill="none" xmlns="http://www.w3.org/2000/svg">
<path d="M0 4.44444V8.88889H40V4.44444C40 3.2657 39.5317 2.13524 38.6983 1.30175C37.8648 0.468252 36.7343 0 35.5556 0H4.44444C3.2657 0 2.13524 0.468252 1.30175 1.30175C0.468253 2.13524 0 3.2657 0 4.44444Z" fill="#0099B5"/>
<path d="M40 24.4444V20H0V24.4444C0 25.6232 0.468253 26.7536 1.30175 27.5871C2.13524 28.4206 3.2657 28.8889 4.44444 28.8889H35.5556C36.7343 28.8889 37.8648 28.4206 38.6983 27.5871C39.5317 26.7536 40 25.6232 40 24.4444Z" fill="#1EB53A"/>
<path d="M0 8.88892H40V10.5556H0V8.88892ZM0 18.3334H40V20H0V18.3334Z" fill="#CE1126"/>
<path d="M0 14.4444V18.3333H40V10.5555H0V14.4444Z" fill="#EEEEEE"/>
<path d="M4.66672 4.62224C4.66681 3.80307 4.95699 3.01039 5.4858 2.38477C6.01461 1.75915 6.74789 1.341 7.5556 1.20447C7.05837 1.12006 6.54871 1.14517 6.06218 1.27804C5.57564 1.41091 5.12397 1.64834 4.73865 1.97376C4.35334 2.29918 4.04367 2.70476 3.83125 3.16219C3.61884 3.61962 3.50879 4.1179 3.50879 4.62224C3.50879 5.12659 3.61884 5.62487 3.83125 6.0823C4.04367 6.53973 4.35334 6.94531 4.73865 7.27073C5.12397 7.59615 5.57564 7.83358 6.06218 7.96645C6.54871 8.09932 7.05837 8.12443 7.5556 8.04002C6.74789 7.90349 6.01461 7.48534 5.4858 6.85972C4.95699 6.2341 4.66681 5.44142 4.66672 4.62224ZM9.87005 7.18113L9.71449 6.70224L9.55894 7.18113H9.05449L9.46227 7.4778L9.30672 7.95669L9.71449 7.66002L10.1212 7.95669L9.9656 7.4778L10.3734 7.18113H9.87005ZM12.8723 7.18113L12.7167 6.70224L12.5612 7.18113H12.0578L12.4656 7.4778L12.3101 7.95669L12.7167 7.66002L13.1245 7.95669L12.9689 7.4778L13.3767 7.18113H12.8723ZM12.7167 3.92891L12.5612 4.4078H12.0578L12.4656 4.70447L12.3101 5.18336L12.7167 4.88669L13.1245 5.18336L12.9689 4.70447L13.3767 4.4078H12.8723L12.7167 3.92891ZM15.8756 7.18113L15.72 6.70224L15.5645 7.18113H15.0612L15.4678 7.4778L15.3123 7.95669L15.72 7.66002L16.1278 7.95669L15.9723 7.4778L16.3789 7.18113H15.8756ZM15.72 3.92891L15.5645 4.4078H15.0612L15.4678 4.70447L15.3123 5.18336L15.72 4.88669L16.1278 5.18336L15.9723 4.70447L16.3789 4.4078H15.8756L15.72 3.92891ZM15.72 1.15558L15.5645 1.63447H15.0612L15.4678 1.93113L15.3123 2.41002L15.72 2.11336L16.1278 2.41002L15.9723 1.93113L16.3789 1.63447H15.8756L15.72 1.15558ZM18.8789 7.18113L18.7234 6.70224L18.5678 7.18113H18.0634L18.4712 7.4778L18.3156 7.95669L18.7234 7.66002L19.13 7.95669L18.9745 7.4778L19.3823 7.18113H18.8789ZM18.7234 3.92891L18.5678 4.4078H18.0634L18.4712 4.70447L18.3156 5.18336L18.7234 4.88669L19.13 5.18336L18.9745 4.70447L19.3823 4.4078H18.8789L18.7234 3.92891ZM18.7234 1.15558L18.5678 1.63447H18.0634L18.4712 1.93113L18.3156 2.41002L18.7234 2.11336L19.13 2.41002L18.9745 1.93113L19.3823 1.63447H18.8789L18.7234 1.15558ZM21.8812 7.18113L21.7256 6.70224L21.5701 7.18113H21.0667L21.4745 7.4778L21.3189 7.95669L21.7256 7.66002L22.1334 7.95669L21.9778 7.4778L22.3856 7.18113H21.8812ZM21.7256 3.92891L21.5701 4.4078H21.0667L21.4745 4.70447L21.3189 5.18336L21.7256 4.88669L22.1334 5.18336L21.9778 4.70447L22.3856 4.4078H21.8812L21.7256 3.92891ZM21.7256 1.15558L21.5701 1.63447H21.0667L21.4745 1.93113L21.3189 2.41002L21.7256 2.11336L22.1334 2.41002L21.9778 1.93113L22.3856 1.63447H21.8812L21.7256 1.15558Z" fill="white"/>
</svg>
